<?xml version="1.0" encoding="UTF-8" standalone="no"?>
<!-- Created with Inkscape (http://www.inkscape.org/) -->

<svg
   xmlns:dc="http://purl.org/dc/elements/1.1/"
   xmlns:cc="http://creativecommons.org/ns#"
   xmlns:rdf="http://www.w3.org/1999/02/22-rdf-syntax-ns#"
   xmlns:svg="http://www.w3.org/2000/svg"
   xmlns="http://www.w3.org/2000/svg"
   xmlns:sodipodi="http://sodipodi.sourceforge.net/DTD/sodipodi-0.dtd"
   xmlns:inkscape="http://www.inkscape.org/namespaces/inkscape"
   width="210mm"
   height="297mm"
   viewBox="0 0 744.09448819 1052.3622047"
   id="svg2"
   version="1.1"
   inkscape:version="0.91 r13725"
   sodipodi:docname="brussels.svg"
   inkscape:export-filename="C:\Users\Mariana Carlota\Desktop\mariana\code\badges\100 scan.png"
   inkscape:export-xdpi="78"
   inkscape:export-ydpi="78">
  <defs
     id="defs4">
    <inkscape:path-effect
       effect="spiro"
       id="path-effect6959"
       is_visible="true" />
    <inkscape:path-effect
       effect="spiro"
       id="path-effect6953"
       is_visible="true" />
    <inkscape:path-effect
       effect="spiro"
       id="path-effect6949"
       is_visible="true" />
    <inkscape:path-effect
       effect="spiro"
       id="path-effect6945"
       is_visible="true" />
    <inkscape:path-effect
       effect="spiro"
       id="path-effect6941"
       is_visible="true" />
    <inkscape:path-effect
       effect="spiro"
       id="path-effect6937"
       is_visible="true" />
    <inkscape:path-effect
       effect="spiro"
       id="path-effect6933"
       is_visible="true" />
    <inkscape:path-effect
       effect="spiro"
       id="path-effect6929"
       is_visible="true" />
    <inkscape:path-effect
       effect="spiro"
       id="path-effect6925"
       is_visible="true" />
    <inkscape:path-effect
       effect="spiro"
       id="path-effect6921"
       is_visible="true" />
    <inkscape:path-effect
       effect="spiro"
       id="path-effect6917"
       is_visible="true" />
    <inkscape:path-effect
       effect="spiro"
       id="path-effect6913"
       is_visible="true" />
    <inkscape:path-effect
       effect="spiro"
       id="path-effect6909"
       is_visible="true" />
    <inkscape:path-effect
       effect="spiro"
       id="path-effect6905"
       is_visible="true" />
    <inkscape:path-effect
       effect="spiro"
       id="path-effect5662"
       is_visible="true" />
    <inkscape:path-effect
       effect="spiro"
       id="path-effect4368"
       is_visible="true" />
    <inkscape:path-effect
       effect="spiro"
       id="path-effect4364"
       is_visible="true" />
    <inkscape:path-effect
       effect="spiro"
       id="path-effect4360"
       is_visible="true" />
    <inkscape:path-effect
       effect="spiro"
       id="path-effect4276"
       is_visible="true" />
    <inkscape:path-effect
       effect="spiro"
       id="path-effect4272"
       is_visible="true" />
    <inkscape:path-effect
       effect="spiro"
       id="path-effect4220"
       is_visible="true" />
    <inkscape:path-effect
       effect="spiro"
       id="path-effect4216"
       is_visible="true" />
    <inkscape:path-effect
       effect="spiro"
       id="path-effect4276-7"
       is_visible="true" />
    <inkscape:path-effect
       effect="spiro"
       id="path-effect4364-1"
       is_visible="true" />
    <inkscape:path-effect
       effect="spiro"
       id="path-effect4368-1"
       is_visible="true" />
    <inkscape:path-effect
       effect="spiro"
       id="path-effect4368-1-1"
       is_visible="true" />
    <inkscape:path-effect
       effect="spiro"
       id="path-effect4368-6"
       is_visible="true" />
    <inkscape:path-effect
       effect="spiro"
       id="path-effect4364-7"
       is_visible="true" />
    <inkscape:path-effect
       effect="spiro"
       id="path-effect4364-1-2"
       is_visible="true" />
    <inkscape:path-effect
       effect="spiro"
       id="path-effect4368-1-7"
       is_visible="true" />
    <inkscape:path-effect
       effect="spiro"
       id="path-effect4368-9"
       is_visible="true" />
    <inkscape:path-effect
       effect="spiro"
       id="path-effect4368-1-1-5"
       is_visible="true" />
    <inkscape:path-effect
       effect="spiro"
       id="path-effect4368-6-6"
       is_visible="true" />
    <inkscape:path-effect
       effect="spiro"
       id="path-effect4364-7-2"
       is_visible="true" />
    <inkscape:path-effect
       effect="spiro"
       id="path-effect4364-1-2-2"
       is_visible="true" />
    <inkscape:path-effect
       effect="spiro"
       id="path-effect4368-1-7-4"
       is_visible="true" />
    <inkscape:path-effect
       effect="spiro"
       id="path-effect4368-9-5"
       is_visible="true" />
    <inkscape:path-effect
       effect="spiro"
       id="path-effect4368-1-1-5-3"
       is_visible="true" />
    <inkscape:path-effect
       effect="spiro"
       id="path-effect4368-6-6-2"
       is_visible="true" />
    <inkscape:path-effect
       effect="spiro"
       id="path-effect4364-0"
       is_visible="true" />
    <inkscape:path-effect
       effect="spiro"
       id="path-effect4364-1-8"
       is_visible="true" />
    <inkscape:path-effect
       effect="spiro"
       id="path-effect4368-1-9"
       is_visible="true" />
    <inkscape:path-effect
       effect="spiro"
       id="path-effect4368-2"
       is_visible="true" />
    <inkscape:path-effect
       effect="spiro"
       id="path-effect4368-1-1-3"
       is_visible="true" />
    <inkscape:path-effect
       effect="spiro"
       id="path-effect4368-6-0"
       is_visible="true" />
    <inkscape:path-effect
       effect="spiro"
       id="path-effect4276-0"
       is_visible="true" />
    <inkscape:path-effect
       effect="spiro"
       id="path-effect4276-7-1"
       is_visible="true" />
    <inkscape:path-effect
       effect="spiro"
       id="path-effect4220-2"
       is_visible="true" />
    <inkscape:path-effect
       effect="spiro"
       id="path-effect4272-3"
       is_visible="true" />
    <inkscape:path-effect
       effect="spiro"
       id="path-effect4216-9"
       is_visible="true" />
    <inkscape:path-effect
       effect="spiro"
       id="path-effect4364-7-1"
       is_visible="true" />
    <inkscape:path-effect
       effect="spiro"
       id="path-effect4364-1-2-1"
       is_visible="true" />
    <inkscape:path-effect
       effect="spiro"
       id="path-effect4368-1-7-8"
       is_visible="true" />
    <inkscape:path-effect
       effect="spiro"
       id="path-effect4368-9-3"
       is_visible="true" />
    <inkscape:path-effect
       effect="spiro"
       id="path-effect4368-1-1-5-4"
       is_visible="true" />
    <inkscape:path-effect
       effect="spiro"
       id="path-effect4368-6-6-9"
       is_visible="true" />
    <inkscape:path-effect
       effect="spiro"
       id="path-effect4364-79"
       is_visible="true" />
    <inkscape:path-effect
       effect="spiro"
       id="path-effect4364-1-82"
       is_visible="true" />
    <inkscape:path-effect
       effect="spiro"
       id="path-effect4368-1-8"
       is_visible="true" />
    <inkscape:path-effect
       effect="spiro"
       id="path-effect4368-4"
       is_visible="true" />
    <inkscape:path-effect
       effect="spiro"
       id="path-effect4368-1-1-2"
       is_visible="true" />
    <inkscape:path-effect
       effect="spiro"
       id="path-effect4368-6-2"
       is_visible="true" />
    <inkscape:path-effect
       effect="spiro"
       id="path-effect4364-0-3"
       is_visible="true" />
    <inkscape:path-effect
       effect="spiro"
       id="path-effect4364-0-7"
       is_visible="true" />
    <inkscape:path-effect
       effect="spiro"
       id="path-effect4368-1-1-3-2"
       is_visible="true" />
    <inkscape:path-effect
       effect="spiro"
       id="path-effect4368-6-0-4"
       is_visible="true" />
    <inkscape:path-effect
       effect="spiro"
       id="path-effect6945-3"
       is_visible="true" />
    <inkscape:path-effect
       effect="spiro"
       id="path-effect6913-6"
       is_visible="true" />
    <inkscape:path-effect
       effect="spiro"
       id="path-effect6917-8"
       is_visible="true" />
    <inkscape:path-effect
       effect="spiro"
       id="path-effect6921-9"
       is_visible="true" />
    <inkscape:path-effect
       effect="spiro"
       id="path-effect6925-1"
       is_visible="true" />
    <inkscape:path-effect
       effect="spiro"
       id="path-effect6929-3"
       is_visible="true" />
    <inkscape:path-effect
       effect="spiro"
       id="path-effect6959-7"
       is_visible="true" />
  </defs>
  <sodipodi:namedview
     id="base"
     pagecolor="#ffffff"
     bordercolor="#666666"
     borderopacity="1.0"
     inkscape:pageopacity="0.0"
     inkscape:pageshadow="2"
     inkscape:zoom="0.98994949"
     inkscape:cx="328.90848"
     inkscape:cy="625.34775"
     inkscape:document-units="px"
     inkscape:current-layer="layer1"
     showgrid="false"
     showguides="false"
     inkscape:window-width="1920"
     inkscape:window-height="1017"
     inkscape:window-x="-8"
     inkscape:window-y="-8"
     inkscape:window-maximized="1" />
  <metadata
     id="metadata7">
    <rdf:RDF>
      <cc:Work
         rdf:about="">
        <dc:format>image/svg+xml</dc:format>
        <dc:type
           rdf:resource="http://purl.org/dc/dcmitype/StillImage" />
        <dc:title></dc:title>
      </cc:Work>
    </rdf:RDF>
  </metadata>
  <g
     inkscape:label="Camada 1"
     inkscape:groupmode="layer"
     id="layer1">
    <g
       id="g4629">
      <path
         d="M 653.38376,482.13107 A 277.41406,281.4404 0 0 1 378.36998,763.56094 277.41406,281.4404 0 0 1 98.59717,487.00114 277.41406,281.4404 0 0 1 368.76955,200.78548 277.41406,281.4404 0 0 1 653.21763,472.39239"
         sodipodi:open="true"
         sodipodi:end="6.2485754"
         sodipodi:start="0"
         sodipodi:ry="281.4404"
         sodipodi:rx="277.41406"
         sodipodi:cy="482.13107"
         sodipodi:cx="375.9697"
         sodipodi:type="arc"
         id="path4147-1-7-6"
         style="opacity:1;fill:#9ab495;fill-opacity:1;fill-rule:evenodd;stroke:none;stroke-width:0.57552546;stroke-linecap:round;stroke-linejoin:round;stroke-miterlimit:4;stroke-dasharray:none;stroke-dashoffset:0;stroke-opacity:1" />
      <path
         sodipodi:nodetypes="ssssscsscsssscsscsscsscsscsscsscssssscs"
         inkscape:connector-curvature="0"
         id="path4584"
         d="m 275.75101,736.8879 c -22.94653,-20.88204 -27.61884,-23.36514 -57.28654,-30.44477 -17.76625,-4.23964 -33.61462,-9.08539 -35.21863,-10.76845 -1.604,-1.68303 -8.22555,-16.92349 -14.71454,-33.86772 -10.51764,-27.4639 -14.62745,-33.30458 -37.86517,-53.81223 l -26.06698,-23.00455 3.99772,-35.5047 c 3.96295,-35.19584 3.88869,-35.79113 -8.53495,-68.4241 L 87.529234,448.14205 108.10743,418.09453 c 18.34443,-26.78582 20.8729,-32.91863 23.29325,-56.49719 4.37561,-42.62645 3.8465,-41.78191 36.97531,-59.01741 27.09101,-14.09428 32.40234,-18.78579 50.31846,-44.44623 l 20.03039,-28.68861 33.96481,0 c 32.49077,0 35.43062,-0.73615 67.7395,-16.9627 l 33.77472,-16.96266 28.60913,16.00173 c 26.99649,15.09977 30.76759,16.11009 66.90235,17.92363 l 38.29321,1.92185 19.36275,27.6896 c 17.22822,24.63714 22.80144,29.49494 50.5561,44.06653 l 31.19335,16.37693 4.22269,34.29632 c 3.89629,31.64476 5.75613,36.6319 24.05588,64.50583 l 19.8331,30.20951 -12.23884,33.9418 c -12.14816,33.69021 -12.20538,34.19331 -7.72393,67.86934 l 4.51491,33.92754 -26.68964,24.1188 c -23.99072,21.67983 -27.96486,27.41736 -39.30104,56.73957 l -12.61143,32.62086 -34.05423,8.41449 c -31.14701,7.69613 -36.24564,10.34904 -59.72382,31.0752 -14.11831,12.46338 -28.15183,22.66067 -31.18555,22.66067 -3.03377,0 -18.87514,-3.41093 -35.20312,-7.57981 -29.54664,-7.54392 -29.83741,-7.54392 -61.42267,0 -17.4545,4.16888 -33.78799,7.5223 -36.29663,7.45201 -2.50866,-0.0704 -15.80409,-10.35922 -29.54543,-22.86423 z"
         style="fill:#ebc785;fill-opacity:1" />
      <text
         sodipodi:linespacing="125%"
         id="text4326-5-1"
         y="506.86209"
         x="419.23526"
         style="font-style:normal;font-weight:normal;font-size:19.68510818px;line-height:125%;font-family:sans-serif;letter-spacing:0px;word-spacing:0px;fill:#595959;fill-opacity:1;stroke:none;stroke-width:1px;stroke-linecap:butt;stroke-linejoin:miter;stroke-opacity:1"
         xml:space="preserve"><tspan
           style="font-size:73.81916046px;letter-spacing:-9.21080399px;fill:#efefef;fill-opacity:1"
           y="506.86209"
           x="419.23526"
           id="tspan4328-6-0"
           sodipodi:role="line">25</tspan></text>
      <path
         style="opacity:1;fill:#3e6370;fill-opacity:1;fill-rule:evenodd;stroke:none;stroke-width:0.68686765;stroke-linecap:round;stroke-linejoin:round;stroke-miterlimit:4;stroke-dasharray:none;stroke-dashoffset:0;stroke-opacity:1"
         id="path4147-8-7"
         sodipodi:type="arc"
         sodipodi:cx="372.19711"
         sodipodi:cy="480.62335"
         sodipodi:rx="241.61292"
         sodipodi:ry="245.1196"
         sodipodi:start="0"
         sodipodi:end="6.2485754"
         sodipodi:open="true"
         d="M 613.81003,480.62335 A 241.61292,245.1196 0 0 1 374.28764,725.73378 241.61292,245.1196 0 0 1 130.62037,484.86492 241.61292,245.1196 0 0 1 365.92617,235.58633 241.61292,245.1196 0 0 1 613.66534,472.14148" />
      <path
         d="M 610.93567,479.39902 A 240.17575,243.66158 0 0 1 372.83801,723.05147 240.17575,243.66158 0 0 1 130.62013,483.61536 240.17575,243.66158 0 0 1 364.52627,235.81953 240.17575,243.66158 0 0 1 610.79184,470.9676"
         sodipodi:open="true"
         sodipodi:end="6.2485754"
         sodipodi:start="0"
         sodipodi:ry="243.66158"
         sodipodi:rx="240.17575"
         sodipodi:cy="479.39902"
         sodipodi:cx="370.75992"
         sodipodi:type="arc"
         id="path4147-8"
         style="opacity:1;fill:#8bb2bf;fill-opacity:1;fill-rule:evenodd;stroke:none;stroke-width:0.68686765;stroke-linecap:round;stroke-linejoin:round;stroke-miterlimit:4;stroke-dasharray:none;stroke-dashoffset:0;stroke-opacity:1" />
      <path
         d="M 571.42993,480.26202 A 201.24292,204.16371 0 0 1 371.92824,684.41809 201.24292,204.16371 0 0 1 168.97422,483.79489 201.24292,204.16371 0 0 1 364.96385,276.16709 201.24292,204.16371 0 0 1 571.30941,473.19735"
         sodipodi:open="true"
         sodipodi:end="6.2485754"
         sodipodi:start="0"
         sodipodi:ry="204.16371"
         sodipodi:rx="201.24292"
         sodipodi:cy="480.26202"
         sodipodi:cx="370.18701"
         sodipodi:type="arc"
         id="path4147-1-7"
         style="opacity:1;fill:#c1dfe9;fill-opacity:1;fill-rule:evenodd;stroke:none;stroke-width:0.57552546;stroke-linecap:round;stroke-linejoin:round;stroke-miterlimit:4;stroke-dasharray:none;stroke-dashoffset:0;stroke-opacity:1" />
      <g
         transform="matrix(0.5824042,0,0,0.5824042,6.9366083,-196.34257)"
         id="g4461">
        <path
           style="fill:#f8f8f8;fill-opacity:1"
           d="m 381.39881,1087.4869 c -0.81116,-3.9074 -1.02804,-8.4784 -0.48929,-10.3125 1.33099,-4.5312 2.13239,-73.2516 1.0934,-93.75954 -0.75726,-14.947 -1.09689,-16.7805 -3.21061,-17.3333 -3.42248,-0.895 -2.90229,-2.8265 0.76123,-2.8265 3.0311,0 3.125,-0.259 3.125,-8.6163 0,-6.5058 0.45926,-8.7925 1.875,-9.3358 1.15261,-0.4423 1.875,-2.3399 1.875,-4.9254 0,-2.3132 0.42187,-4.6278 0.9375,-5.1434 1.05871,-1.0587 1.18688,-1.6984 1.40625,-7.0184 0.17258,-4.1852 2.3631,-5.6191 6.86007,-4.4904 2.56042,0.6426 2.90187,1.3909 2.59576,5.6885 -0.19554,2.7454 0.29931,5.4188 1.11147,6.0046 2.00032,1.4429 8.78146,2.0638 7.95619,0.7285 -0.36499,-0.5906 1.49475,-1.0738 4.13276,-1.0738 2.63801,0 4.52775,0.4347 4.19942,0.9659 -0.32833,0.5313 1.40499,0.966 3.85181,0.966 2.67305,0 4.48816,-0.6237 4.54745,-1.5625 0.079,-1.25 0.22479,-1.25 0.72917,0 0.4191,1.0386 3.52924,1.5625 9.27632,1.5625 6.0307,0 8.67568,-0.4727 8.74451,-1.5625 0.079,-1.25 0.22479,-1.25 0.72917,0 0.40325,0.9993 3.25829,1.5625 7.92155,1.5625 6.90529,0 7.37923,-0.1992 8.95746,-3.7647 0.91653,-2.0706 2.65934,-4.0798 3.87293,-4.465 1.21358,-0.3852 1.91192,-1.177 1.55187,-1.7596 -0.36005,-0.5825 0.19428,-1.9081 1.23185,-2.9457 1.03757,-1.0376 1.88649,-2.4892 1.88649,-3.2258 0,-2.4403 2.19588,-1.3872 2.92555,1.4031 0.67953,2.5985 0.8401,2.631 3.06273,0.6195 2.86902,-2.5964 5.625,-10.9986 4.1059,-12.5177 -1.16503,-1.165 2.76281,-5.8441 4.90582,-5.8441 0.6875,0 1.25,-0.8438 1.25,-1.875 0,-1.3542 1.38889,-1.875 5,-1.875 4.88095,0 5,-0.1042 5,-4.375 0,-3.6167 -0.45684,-4.375 -2.63551,-4.375 -2.73709,0 -2.73159,0.1313 -0.35348,-8.4375 0.47279,-1.7036 0.2302,-2.8125 -0.61522,-2.8125 -2.58604,0 -1.42234,-3.4515 1.41671,-4.2018 3.55569,-0.9398 7.02657,3.2301 6.21639,7.4682 -0.4481,2.3442 -0.032,2.9836 1.94165,2.9836 2.94586,0 3.99929,-2.0884 3.19265,-6.3293 -0.41318,-2.1722 0.5428,-4.3005 3.33332,-7.4207 3.26089,-3.6462 3.78499,-5.0563 3.14627,-8.465 -0.53316,-2.8453 -0.17697,-4.6794 1.17042,-6.0268 1.74906,-1.749 1.9368,-1.5745 1.9368,1.8003 0,7.34 2.88379,10.2509 4.8608,4.9065 0.99755,-2.6966 1.09645,-2.657 3.11682,1.25 2.19635,4.2473 4.28012,5.0273 6.77238,2.535 1.16666,-1.1667 1.5,-0.9319 1.5,1.0563 0,1.4059 1.19139,3.6277 2.64754,4.9374 1.45615,1.3097 3.11492,3.5063 3.68617,4.8813 1.01511,2.4433 1.05703,2.4382 1.85064,-0.2261 0.91559,-3.0738 3.40354,-4.4205 6.19065,-3.351 2.22097,0.8523 2.43185,3.1452 0.4697,5.1074 -1.04039,1.0403 -1.04039,2.452 0,5.4365 1.7746,5.0906 1.80915,9.9082 0.071,9.9082 -0.78493,0 -0.99255,-1.0766 -0.5043,-2.615 0.66091,-2.0823 0.35985,-2.5256 -1.47826,-2.1768 -3.0098,0.5713 -3.91969,6.9917 -1.14192,8.0576 1.07729,0.4134 1.95872,1.5352 1.95872,2.4929 0,0.9577 0.5625,1.7413 1.25,1.7413 2.1519,0 6.07092,4.679 4.89986,5.8501 -1.3148,1.3148 0.842,9.9383 2.78617,11.1398 0.73892,0.4567 1.84309,0.055 2.45372,-0.8923 0.93149,-1.4453 1.31412,-1.4208 2.3765,0.1524 0.69645,1.0312 1.03218,2.8523 0.7461,4.0469 -0.38768,1.6188 0.64283,2.4858 4.04625,3.4044 3.276,0.8842 5.03755,2.3015 6.23367,5.0156 1.70343,3.8651 5.69628,5.1538 6.87988,2.2206 0.50438,-1.25 0.65021,-1.25 0.72916,0 0.0585,0.9258 1.83882,1.5625 4.36952,1.5625 2.34896,0 4.55455,-0.7032 4.90132,-1.5625 0.50438,-1.25 0.65021,-1.25 0.72916,0 0.0689,1.0898 2.71382,1.5625 8.74452,1.5625 5.74708,0 8.85722,-0.5239 9.27632,-1.5625 0.50438,-1.25 0.65021,-1.25 0.72916,0 0.0593,0.9388 1.87441,1.5625 4.54746,1.5625 2.44683,0 4.18014,-0.4347 3.8518,-0.966 -0.32832,-0.5312 1.56141,-0.9659 4.19943,-0.9659 2.63801,0 4.52031,0.4467 4.1829,0.9927 -0.33743,0.5459 1.17582,0.8563 3.36277,0.6896 4.44963,-0.339 6.88168,-4.3815 5.63186,-9.3611 -0.56897,-2.267 -0.0838,-2.9908 2.42789,-3.6211 4.68473,-1.1758 6.87609,0.2049 7.05083,4.4425 0.21937,5.32 0.34755,5.9597 1.40625,7.0184 0.51562,0.5156 0.9375,2.8302 0.9375,5.1434 0,2.5855 0.7224,4.4831 1.875,4.9254 1.41573,0.5433 1.875,2.83 1.875,9.3358 0,8.3573 0.0939,8.6163 3.125,8.6163 3.73392,0 4.15722,1.9384 0.625,2.8621 -2.17825,0.5697 -2.5,1.7051 -2.5,8.8221 0,4.4925 -0.5803,8.5269 -1.28957,8.9652 -0.84992,0.5253 -1.2394,15.2884 -1.14242,43.30364 0.12025,34.7216 0.49079,43.329 2.02345,46.9972 1.28176,3.0677 1.61075,6.2613 1.03827,10.0789 -1.54863,10.3274 -1.3174,10.2209 -22.18036,10.2209 -15.56605,0 -18.44931,-0.2931 -18.44931,-1.875 0,-1.0313 -0.6105,-1.875 -1.35666,-1.875 -0.92025,0 -1.10034,-2.7142 -0.55983,-8.4375 1.69224,-17.9188 2.10164,-65.4583 0.5795,-67.2924 -1.05368,-1.2696 -1.07237,-1.7701 -0.0661,-1.7701 3.46646,0 0.13861,-10.071 -5.30566,-16.05634 -4.2308,-4.6513 -8.87287,-6.4442 -16.66672,-6.4373 -11.22048,0.01 -19.32638,5.9386 -22.83875,16.70464 -1.28476,3.938 -1.27542,5.0228 0.0504,5.8422 1.28102,0.7917 1.30562,1.3948 0.11537,2.8289 -2.3228,2.7988 -1.85998,50.9973 0.55925,58.2421 1.8837,5.6409 1.29193,16.3758 -0.90269,16.3758 -0.60943,0 -1.10807,0.8437 -1.10807,1.875 0,1.5153 -1.98047,1.875 -10.32431,1.875 -11.75365,0 -12.61684,-0.6277 -14.05543,-10.2209 -0.56772,-3.7859 -0.24495,-7.0077 1.00077,-9.9891 2.25422,-5.3951 3.05957,-56.5674 0.91116,-57.8952 -0.71025,-0.4389 -0.95456,-2.14 -0.54293,-3.7801 1.58769,-6.3258 -4.64889,-16.26234 -12.84458,-20.46484 -3.8335,-1.9656 -16.11001,-1.7441 -20.14425,0.3635 -5.47629,2.8609 -10.27229,8.74624 -12.11386,14.86534 -1.30073,4.322 -1.35963,5.8398 -0.24124,6.2164 1.11268,0.3747 1.08281,0.9793 -0.12051,2.4375 -2.41757,2.9299 -1.90463,52.2531 0.6059,58.2616 1.98147,4.7424 1.33866,13.6874 -1.28557,17.8895 -2.10583,3.3719 -20.79337,3.4378 -22.88994,0.081 -2.62237,-4.199 -3.17439,-12.0246 -1.25786,-17.8317 2.43287,-7.3716 2.94048,-55.4818 0.61494,-58.2839 -1.16056,-1.3983 -1.17504,-2.0566 -0.0604,-2.7455 1.03467,-0.6394 1.12492,-2.096 0.30666,-4.9491 -3.3194,-11.57404 -11.41176,-17.70714 -23.35377,-17.69954 -8.56647,0 -13.37489,2.4361 -18.74752,9.47714 l -3.58228,4.6947 0.12718,33.8493 c 0.0699,18.617 0.5553,37.9273 1.07856,42.9117 0.67091,6.3909 0.54129,9.0625 -0.43969,9.0625 -0.76505,0 -1.39103,0.8437 -1.39103,1.875 0,1.5856 -2.97626,1.875 -19.28638,1.875 l -19.28638,0 -1.45697,-7.0182 z M 497.9077,897.98416 c -0.89695,-0.8969 -1.47916,-0.9707 -1.47916,-0.1875 0,1.6685 1.47826,3.1468 2.3125,2.3125 0.35521,-0.3552 -0.0198,-1.3114 -0.83334,-2.125 z m 7.09498,1.1078 c 1.92842,-2.3237 2.33497,-7.3349 0.64407,-7.9389 -0.77373,-0.2764 -1.68577,0.7866 -2.02675,2.3622 -0.34099,1.5756 -1.03373,3.8491 -1.53945,5.0523 -1.08258,2.5755 0.92136,2.9351 2.92213,0.5244 z m 29.3779,-6.4619 c -0.39574,-1.0313 -0.94058,-1.875 -1.21078,-1.875 -0.27018,0 -0.49126,0.8437 -0.49126,1.875 0,1.0312 0.54485,1.875 1.21078,1.875 0.66591,0 0.88698,-0.8438 0.49126,-1.875 z m 3.5375,-8.3855 c -0.87182,-0.8718 -2.13602,-0.6785 -3.97189,0.6074 -1.91069,1.3383 -2.21364,2.0575 -1.04284,2.4758 2.5492,0.9106 6.54923,-1.5487 5.01473,-3.0832 z m -13.04393,-5.2385 c 0.14283,-3.2815 -0.4222,-6.048 -1.40115,-6.8604 -1.29875,-1.0778 -1.67575,-0.4233 -1.8098,3.1422 -0.13983,3.7197 1.44815,9.2172 2.66246,9.2172 0.17004,0 0.41687,-2.4746 0.54849,-5.499 z m 8.42939,-2.001 c -0.4249,-0.6875 -1.33504,-1.25 -2.02254,-1.25 -0.6875,0 -0.90236,0.5625 -0.47746,1.25 0.4249,0.6875 1.33504,1.25 2.02254,1.25 0.6875,0 0.90236,-0.5625 0.47746,-1.25 z m -43.57703,18.125 c -0.39573,-1.0313 -0.17466,-1.875 0.49126,-1.875 0.66592,0 1.21077,0.8437 1.21077,1.875 0,1.0312 -0.22107,1.875 -0.49126,1.875 -0.2702,0 -0.81504,-0.8438 -1.21077,-1.875 z"
           id="path4444"
           inkscape:connector-curvature="0"
           sodipodi:nodetypes="csscsscscscsccscsccsccssscssscssssssssccsscssssssssssccsscccssccccsscccsccscsscsccscscscsscscssssssssssssscsssssscscssccsccsccscscsssssccccsccccscccssscsscsscsssssssscsssc" />
        <path
           style="fill:#313435;fill-opacity:1"
           d="m 385.42075,1089.3522 c -0.81116,-3.9074 -1.02804,-8.4784 -0.48929,-10.3125 1.33099,-4.5312 2.13239,-73.2516 1.0934,-93.75951 -0.75726,-14.947 -1.09689,-16.7805 -3.21061,-17.3333 -3.42248,-0.895 -2.90229,-2.8265 0.76123,-2.8265 3.0311,0 3.125,-0.259 3.125,-8.6163 0,-6.5058 0.45926,-8.7925 1.875,-9.3358 1.15261,-0.4423 1.875,-2.3399 1.875,-4.9254 0,-2.3132 0.42187,-4.6278 0.9375,-5.1434 1.05871,-1.0587 1.18688,-1.6984 1.40625,-7.0184 0.17258,-4.1852 2.3631,-5.6191 6.86007,-4.4904 2.56042,0.6426 2.90187,1.3909 2.59576,5.6885 -0.19554,2.7454 0.29931,5.4188 1.11147,6.0046 2.00032,1.4429 8.78146,2.0638 7.95619,0.7285 -0.36499,-0.5906 1.49475,-1.0738 4.13276,-1.0738 2.63801,0 4.52775,0.4347 4.19942,0.9659 -0.32833,0.5313 1.40499,0.966 3.85181,0.966 2.67305,0 4.48816,-0.6237 4.54745,-1.5625 0.079,-1.25 0.22479,-1.25 0.72917,0 0.4191,1.0386 3.52924,1.5625 9.27632,1.5625 6.0307,0 8.67568,-0.4727 8.74451,-1.5625 0.079,-1.25 0.22479,-1.25 0.72917,0 0.40325,0.9993 3.25829,1.5625 7.92155,1.5625 6.90529,0 7.37923,-0.1992 8.95746,-3.7647 0.91653,-2.0706 2.65934,-4.0798 3.87293,-4.465 1.21358,-0.3852 1.91192,-1.177 1.55187,-1.7596 -0.36005,-0.5825 0.19428,-1.9081 1.23185,-2.9457 1.03757,-1.0376 1.88649,-2.4892 1.88649,-3.2258 0,-2.4403 2.19588,-1.3872 2.92555,1.4031 0.67953,2.5985 0.8401,2.631 3.06273,0.6195 2.86903,-2.5964 5.62501,-10.9986 4.10591,-12.5177 -1.16503,-1.165 2.76281,-5.8441 4.90582,-5.8441 0.6875,0 1.25,-0.8438 1.25,-1.875 0,-1.3542 1.38889,-1.875 5,-1.875 4.88095,0 5,-0.1042 5,-4.375 0,-3.6167 -0.45684,-4.375 -2.63551,-4.375 -2.73709,0 -2.73159,0.1313 -0.35348,-8.4375 0.47279,-1.7036 0.2302,-2.8125 -0.61522,-2.8125 -2.58604,0 -1.42234,-3.4515 1.41671,-4.2018 3.55569,-0.9398 7.02657,3.2301 6.21639,7.4682 -0.4481,2.3442 -0.032,2.9836 1.94165,2.9836 2.94586,0 3.99929,-2.0884 3.19265,-6.3293 -0.41318,-2.1722 0.5428,-4.3005 3.33332,-7.4207 3.26089,-3.6462 3.78499,-5.0563 3.14627,-8.465 -0.53316,-2.8453 -0.17697,-4.6794 1.17042,-6.0268 1.74906,-1.749 1.9368,-1.5745 1.9368,1.8003 0,7.34 2.88379,10.2509 4.8608,4.9065 0.99755,-2.6966 1.09645,-2.657 3.11682,1.25 2.19635,4.2473 4.28012,5.0273 6.77238,2.535 1.16666,-1.1667 1.5,-0.9319 1.5,1.0563 0,1.4059 1.19139,3.6277 2.64754,4.9374 1.45615,1.3097 3.11492,3.5063 3.68617,4.8813 1.01511,2.4433 1.05703,2.4382 1.85064,-0.2261 0.91559,-3.0738 3.40354,-4.4205 6.19065,-3.351 2.22097,0.8523 2.43185,3.1452 0.4697,5.1074 -1.04039,1.0403 -1.04039,2.452 0,5.4365 1.7746,5.0906 1.80915,9.9082 0.071,9.9082 -0.78493,0 -0.99255,-1.0766 -0.5043,-2.615 0.66091,-2.0823 0.35985,-2.5256 -1.47826,-2.1768 -3.0098,0.5713 -3.91969,6.9917 -1.14192,8.0576 1.07729,0.4134 1.95872,1.5352 1.95872,2.4929 0,0.9577 0.5625,1.7413 1.25,1.7413 2.1519,0 6.07092,4.679 4.89986,5.8501 -1.3148,1.3148 0.842,9.9383 2.78617,11.1398 0.73892,0.4567 1.84309,0.055 2.45372,-0.8923 0.93149,-1.4453 1.31412,-1.4208 2.3765,0.1524 0.69645,1.0312 1.03218,2.8523 0.7461,4.0469 -0.38768,1.6188 0.64283,2.4858 4.04625,3.4044 3.276,0.8842 5.03755,2.3015 6.23367,5.0156 1.70343,3.8651 5.69628,5.1538 6.87988,2.2206 0.50438,-1.25 0.65021,-1.25 0.72916,0 0.0585,0.9258 1.83882,1.5625 4.36952,1.5625 2.34896,0 4.55455,-0.7032 4.90132,-1.5625 0.50438,-1.25 0.65021,-1.25 0.72916,0 0.0689,1.0898 2.71382,1.5625 8.74452,1.5625 5.74708,0 8.85722,-0.5239 9.27632,-1.5625 0.50438,-1.25 0.65021,-1.25 0.72916,0 0.0593,0.9388 1.87441,1.5625 4.54746,1.5625 2.44683,0 4.18014,-0.4347 3.8518,-0.966 -0.32832,-0.5312 1.56141,-0.9659 4.19943,-0.9659 2.63801,0 4.52031,0.4467 4.1829,0.9927 -0.33743,0.5459 1.17582,0.8563 3.36277,0.6896 4.44963,-0.339 6.88168,-4.3815 5.63186,-9.3611 -0.56897,-2.267 -0.0838,-2.9908 2.42789,-3.6211 4.68473,-1.1758 6.87609,0.2049 7.05083,4.4425 0.21937,5.32 0.34755,5.9597 1.40625,7.0184 0.51562,0.5156 0.9375,2.8302 0.9375,5.1434 0,2.5855 0.7224,4.4831 1.875,4.9254 1.41573,0.5433 1.875,2.83 1.875,9.3358 0,8.3573 0.0939,8.6163 3.125,8.6163 3.73392,0 4.15722,1.9384 0.625,2.8621 -2.17825,0.5697 -2.5,1.7051 -2.5,8.8221 0,4.4925 -0.5803,8.5269 -1.28957,8.9652 -0.84992,0.5253 -1.2394,15.28841 -1.14242,43.30361 0.12025,34.7216 0.49079,43.329 2.02345,46.9972 1.28176,3.0677 1.61075,6.2613 1.03827,10.0789 -1.54863,10.3274 -1.3174,10.2209 -22.18036,10.2209 -15.56605,0 -18.44931,-0.2931 -18.44931,-1.875 0,-1.0313 -0.6105,-1.875 -1.35666,-1.875 -0.92025,0 -1.10034,-2.7142 -0.55983,-8.4375 1.69224,-17.9188 2.10164,-65.4583 0.5795,-67.2924 -1.05368,-1.2696 -1.07237,-1.7701 -0.0661,-1.7701 3.46646,0 0.13861,-10.071 -5.30566,-16.05635 -4.2308,-4.65126 -8.87287,-6.44416 -16.66672,-6.43726 -11.22048,0.01 -19.32638,5.93856 -22.83875,16.70461 -1.28476,3.938 -1.27542,5.0228 0.0504,5.8422 1.28102,0.7917 1.30562,1.3948 0.11537,2.8289 -2.3228,2.7988 -1.85998,50.9973 0.55925,58.2421 1.8837,5.6409 1.29193,16.3758 -0.90269,16.3758 -0.60943,0 -1.10807,0.8437 -1.10807,1.875 0,1.5153 -1.98047,1.875 -10.32431,1.875 -11.75365,0 -12.61684,-0.6277 -14.05543,-10.2209 -0.56772,-3.7859 -0.24495,-7.0077 1.00077,-9.9891 2.25422,-5.3951 3.05957,-56.5674 0.91116,-57.8952 -0.71025,-0.4389 -0.95456,-2.14 -0.54293,-3.7801 1.58769,-6.3258 -4.64889,-16.26235 -12.84458,-20.46481 -3.8335,-1.9656 -16.11001,-1.7441 -20.14425,0.3635 -5.47629,2.86086 -10.27229,8.74631 -12.11386,14.86531 -1.30073,4.322 -1.35963,5.8398 -0.24124,6.2164 1.11268,0.3747 1.08281,0.9793 -0.12051,2.4375 -2.41757,2.9299 -1.90463,52.2531 0.6059,58.2616 1.98147,4.7424 1.33866,13.6874 -1.28557,17.8895 -2.10583,3.3719 -20.79338,3.4378 -22.88995,0.081 -2.62237,-4.199 -3.17439,-12.0246 -1.25786,-17.8317 2.43287,-7.3716 2.94048,-55.4818 0.61494,-58.2839 -1.16056,-1.3983 -1.17504,-2.0566 -0.0604,-2.7455 1.03467,-0.6394 1.12492,-2.096 0.30666,-4.9491 -3.3194,-11.57405 -11.41176,-17.70711 -23.35377,-17.69951 -8.56647,0 -13.37489,2.4361 -18.74752,9.47721 l -3.58228,4.6946 0.12718,33.8493 c 0.0699,18.617 0.5553,37.9273 1.07856,42.9117 0.67091,6.3909 0.54129,9.0625 -0.43969,9.0625 -0.76505,0 -1.39103,0.8437 -1.39103,1.875 0,1.5856 -2.97626,1.875 -19.28638,1.875 l -19.28638,0 -1.45697,-7.0182 z m 116.5089,-189.50271 c -0.89695,-0.8969 -1.47916,-0.9707 -1.47916,-0.1875 0,1.6685 1.47826,3.1468 2.3125,2.3125 0.35521,-0.3552 -0.0198,-1.3114 -0.83334,-2.125 z m 7.09498,1.1078 c 1.92842,-2.3237 2.33497,-7.3349 0.64407,-7.9389 -0.77373,-0.2764 -1.68577,0.7866 -2.02675,2.3622 -0.34099,1.5756 -1.03373,3.8491 -1.53945,5.0523 -1.08258,2.5755 0.92136,2.9351 2.92213,0.5244 z m 29.3779,-6.4619 c -0.39574,-1.0313 -0.94058,-1.875 -1.21078,-1.875 -0.27018,0 -0.49126,0.8437 -0.49126,1.875 0,1.0312 0.54485,1.875 1.21078,1.875 0.66591,0 0.88698,-0.8438 0.49126,-1.875 z m 3.5375,-8.3855 c -0.87182,-0.8718 -2.13602,-0.6785 -3.97189,0.6074 -1.91069,1.3383 -2.21364,2.0575 -1.04284,2.4758 2.5492,0.9106 6.54923,-1.5487 5.01473,-3.0832 z m -13.04393,-5.2385 c 0.14283,-3.2815 -0.4222,-6.048 -1.40115,-6.8604 -1.29875,-1.0778 -1.67575,-0.4233 -1.8098,3.1422 -0.13983,3.7197 1.44815,9.2172 2.66246,9.2172 0.17004,0 0.41687,-2.4746 0.54849,-5.499 z m 8.42939,-2.001 c -0.4249,-0.6875 -1.33504,-1.25 -2.02254,-1.25 -0.6875,0 -0.90236,0.5625 -0.47746,1.25 0.4249,0.6875 1.33504,1.25 2.02254,1.25 0.6875,0 0.90236,-0.5625 0.47746,-1.25 z m -43.57703,18.125 c -0.39573,-1.0313 -0.17466,-1.875 0.49126,-1.875 0.66592,0 1.21077,0.8437 1.21077,1.875 0,1.0312 -0.22107,1.875 -0.49126,1.875 -0.2702,0 -0.81504,-0.8438 -1.21077,-1.875 z"
           id="path4444-2"
           inkscape:connector-curvature="0"
           sodipodi:nodetypes="csscsscscscsccscsccsccssscssscssssssssccsscssssssssssccsscccssccccsscccsccscsscsccscscscsscscssssssssssssscsssssscscssccsccsccscscsssssccccsccccscccssscsscsscsssssssscsssc" />
      </g>
      <g
         transform="matrix(0.77187006,0.00297917,-0.00297917,0.77187006,47.571768,-434.04125)"
         id="g6542">
        <path
           style="fill:#dadcdd;fill-opacity:1"
           d="m 176.42475,1272.2536 c -0.45833,-0.4584 -0.83333,-2.9008 -0.83333,-5.4276 0,-4.5279 0.12628,-4.6437 8.75293,-8.0282 l 8.75293,-3.4341 -2.49869,-3.1766 c -3.78712,-4.8145 -5.35449,-12.023 -3.81754,-17.5571 0.71303,-2.5675 1.29957,-5.3117 1.3034,-6.0982 0.008,-1.5968 -35.80366,-30.7202 -37.98301,-30.8894 -0.76176,-0.059 -3.35377,0.8193 -5.76002,1.9522 -2.40625,1.1329 -5.26267,2.3273 -6.34761,2.6543 -1.49329,0.4501 -2.65528,4.9523 -4.78215,18.5288 -8.45431,53.9664 -7.86671,51.0592 -10.32012,51.0592 -1.26507,0 -2.30012,-0.4722 -2.30012,-1.0494 0,-1.0499 -5.44286,-3.9506 -7.41303,-3.9506 -0.57496,0 -1.33959,1.125 -1.69916,2.5 -0.35957,1.375 -1.61578,2.5 -2.79157,2.5 -1.42805,0 -1.94141,-0.7263 -1.54623,-2.1875 0.32537,-1.2031 4.70117,-17.2539 9.72401,-35.6683 l 9.13242,-33.4808 -3.84747,-4.0192 c -9.28336,-9.6977 -6.92985,-24.9338 4.88166,-31.6029 1.87263,-1.0573 1.91042,-2.1006 0.4044,-11.1663 -0.91368,-5.5 -2.30742,-14.0278 -3.0972,-18.9507 -1.24731,-7.7747 -1.82149,-9.0473 -4.37055,-9.6871 -1.61403,-0.4051 -4.68566,-2.2099 -6.82584,-4.0108 -11.86825,-9.9865 -10.46294,-28.5379 2.81394,-37.1468 5.92487,-3.8418 16.12758,-4.561 21.95469,-1.5477 3.35626,1.7356 4.02958,1.4147 25.87543,-12.3301 l 22.4295,-14.1121 0.0999,-6.7324 c 0.16024,-10.7991 6.13613,-19.0524 16.19982,-22.3738 13.73962,-4.5344 28.99902,8.1689 27.87521,23.2059 l -0.42493,5.6857 22.39971,14.1282 c 21.33198,13.4547 22.55345,14.048 25.625,12.4451 3.92102,-2.0461 15.49185,-2.2239 19.24497,-0.2957 8.51772,4.376 13.71246,12.6052 13.71246,21.7222 0,9.5271 -4.44564,16.4143 -13.56708,21.0182 -3.78955,1.9128 -3.86873,2.1553 -6.69293,20.4938 l -2.858,18.5581 5.02676,5.0268 c 8.26975,8.2697 8.35776,19.9383 0.20841,27.6299 -2.04836,1.9334 -3.7243,4.1689 -3.7243,4.968 0,1.4222 17.12938,65.51 18.3819,68.774 0.40371,1.0521 -0.32521,1.6563 -1.99816,1.6563 -1.45983,0 -2.63374,-0.8029 -2.63374,-1.8012 0,-0.9907 -0.52035,-2.1229 -1.15632,-2.5159 -1.40307,-0.8671 -7.59368,1.7968 -7.59368,3.2677 0,0.5772 -1.125,1.0494 -2.5,1.0494 -1.375,0 -2.5,-0.2132 -2.5,-0.4738 0,-1.1412 -10.06047,-64.1835 -10.64636,-66.7137 -0.3582,-1.5469 -1.51224,-2.8125 -2.56453,-2.8125 -1.0523,0 -3.57615,-0.8599 -5.60857,-1.9109 l -3.69531,-1.9109 -19.05512,15.2437 c -10.48031,8.3841 -19.19827,15.3403 -19.37325,15.4583 -0.17497,0.1178 0.30812,2.0108 1.07353,4.2065 1.92947,5.5349 0.35185,14.3984 -3.34475,18.7915 l -3.06296,3.6402 8.76366,3.4383 8.76366,3.4383 0,5.4275 0,5.4275 -31.66666,0 c -17.41667,0 -32.04167,-0.375 -32.50001,-0.8333 z m -54.58333,-9.207 c 0,-2.7776 -0.75145,-4.0786 -2.8125,-4.8694 -3.14194,-1.2055 -4.04805,-0.6564 -5.19269,3.1469 -0.58246,1.9354 -0.0521,2.9662 2.04701,3.9779 4.70066,2.2659 5.95818,1.7898 5.95818,-2.2554 z m 175.54363,2.5712 c 3.2148,-1.2222 4.08938,-4.2034 2.13643,-7.2824 -0.79998,-1.2612 -1.72641,-1.3099 -4.12533,-0.2169 -2.49592,1.1373 -2.99004,2.1157 -2.55733,5.064 0.6135,4.18 0.3411,4.0341 4.54623,2.4353 z m -174.29363,-13.0101 c 0,-3.1809 -0.62098,-4.3916 -2.50521,-4.8844 -3.59889,-0.9411 -5.06382,5.0576 -1.8152,7.4331 3.49474,2.5554 4.32041,2.0683 4.32041,-2.5487 z m 172.97604,2.6177 c 1.59844,-1.1688 1.97594,-2.5196 1.37416,-4.9173 -0.69229,-2.7583 -1.27645,-3.1405 -3.52745,-2.3078 -1.48376,0.5489 -2.6415,1.6367 -2.57275,2.4173 0.0687,0.7806 0.20938,2.5443 0.3125,3.9193 0.21794,2.9058 1.34456,3.1326 4.41354,0.8885 z m -172.64713,-16.8593 c -1.80488,-1.341 -2.28797,-1.2412 -3.02551,0.625 -1.5357,3.8858 -1.11966,6.3992 1.1341,6.8513 3.22963,0.648 4.74802,-5.3539 1.89141,-7.4763 z m 171.64304,3.8977 c -0.39707,-1.0348 -0.72195,-2.3979 -0.72195,-3.0291 0,-1.515 -3.39714,-1.48 -4.33947,0.045 -0.40535,0.6559 -0.38042,2.6133 0.0554,4.3498 0.67576,2.6925 1.15579,2.9629 3.26019,1.8367 1.47214,-0.7879 2.17649,-2.0798 1.74581,-3.2021 z M 126.30078,1229.731 c -1.03374,-2.6939 -2.88072,-1.8737 -3.77134,1.6748 -1.07171,4.2701 1.94465,6.6128 3.41089,2.6492 0.54524,-1.4739 0.70745,-3.4197 0.36045,-4.324 z m 166.23748,3.7174 c -0.38326,-0.9988 -0.69684,-2.6137 -0.69684,-3.5887 0,-0.9751 -0.84375,-1.7728 -1.875,-1.7728 -1.03125,0 -1.875,1.079 -1.875,2.3978 0,3.9903 1.35028,6.2353 3.30029,5.487 1.01386,-0.3891 1.52981,-1.5246 1.14655,-2.5233 z M 127.86195,1221.428 c 0.21754,-1.8376 -0.20434,-3.3411 -0.9375,-3.3411 -0.73317,0 -1.33303,0.7977 -1.33303,1.7728 0,0.975 -0.37088,2.7392 -0.82419,3.9205 -0.57835,1.5072 -0.29872,1.975 0.9375,1.5684 0.96893,-0.3187 1.93968,-2.083 2.15722,-3.9206 z m 161.78188,1.0154 c -0.8862,-4.6358 -2.80241,-5.101 -2.80241,-0.6803 0,2.3925 0.63696,3.8238 1.70166,3.8238 1.14374,0 1.50464,-1.0307 1.10075,-3.1435 z m -93.35607,-18.5827 c 2.10348,-16.9144 2.09827,-17.3838 -0.20677,-18.6438 -4.88367,-2.6695 -10.53864,-9.9678 -11.89399,-15.3504 -0.7658,-3.0413 -1.74746,-5.5217 -2.18147,-5.5121 -0.43401,0.01 -6.41411,3.0428 -13.28911,6.7402 -12.42972,6.6848 -12.50456,6.7533 -13.31032,12.17 -0.44567,2.996 -1.00817,6.0762 -1.25,6.8449 -0.52719,1.6758 37.9471,33.0219 39.1421,31.8901 0.45747,-0.4332 1.80278,-8.5958 2.98956,-18.1389 z m 48.12079,4.1722 c 16.84915,-13.5546 18.57913,-15.3042 17.3687,-17.5659 -0.73939,-1.3816 -1.3734,-4.6174 -1.40892,-7.1907 -0.0639,-4.6246 -0.20575,-4.754 -12.26186,-11.1841 -6.7085,-3.5779 -12.83127,-6.5053 -13.60616,-6.5053 -0.77489,0 -1.40889,1.2936 -1.40889,2.8748 0,3.9362 -5.60597,12.2606 -10.52805,15.6332 l -4.05851,2.781 2.23507,16.543 c 1.22929,9.0986 2.26127,17.2461 2.29328,18.1055 0.032,0.8594 0.64412,1.5625 1.36025,1.5625 0.71612,0 9.72291,-6.7743 20.01509,-15.054 z m -40.48168,8.4635 c 0.43807,-0.7088 -0.2612,-2.0622 -1.55394,-3.0074 -2.04799,-1.4976 -2.46337,-1.433 -3.22811,0.5021 -1.55182,3.9266 -1.15303,5.1378 1.46608,4.4529 1.38571,-0.3624 2.8779,-1.2388 3.31597,-1.9476 z m 14.16455,-0.3762 c 0,-2.3825 -0.56352,-3.1081 -2.17315,-2.7981 -2.98262,0.5744 -3.51345,4.413 -0.71071,5.1394 1.24237,0.322 2.39949,0.6506 2.57136,0.7304 0.17188,0.08 0.3125,-1.3025 0.3125,-3.0717 z m -88.75,-3.0333 c 0,-1.375 -0.21564,-2.5 -0.47921,-2.5 -0.26357,0 -0.77341,1.125 -1.13298,2.5 -0.35957,1.375 -0.14392,2.5 0.47922,2.5 0.62313,0 1.13297,-1.125 1.13297,-2.5 z m 157.07785,-1.5625 c -0.34676,-0.8594 -0.63049,-0.1563 -0.63049,1.5625 0,1.7187 0.28373,2.4219 0.63049,1.5625 0.34676,-0.8594 0.34676,-2.2656 0,-3.125 z m -69.57785,-4.3004 c 0,-4.1659 -3.00449,-3.0868 -3.51979,1.2641 -0.30743,2.5959 0.0383,3.1673 1.5625,2.5824 1.07652,-0.4131 1.95729,-2.144 1.95729,-3.8465 z m -12.5,0.9367 c 0,-1.3345 -0.61151,-2.8042 -1.35891,-3.2661 -1.91136,-1.1813 -4.12343,1.3824 -3.2213,3.7333 1.0715,2.7922 4.58021,2.4343 4.58021,-0.4672 z m 11.60016,-10.1198 c -1.00017,-3.8247 -2.85016,-2.8842 -2.85016,1.449 0,3.1995 0.31475,3.6419 1.74596,2.4541 0.96028,-0.797 1.45717,-2.5533 1.1042,-3.9031 z m -11.82572,0.9835 c -0.21969,-1.5469 -0.96194,-2.8125 -1.64944,-2.8125 -0.6875,0 -1.42975,1.2656 -1.64944,2.8125 -0.27484,1.9352 0.23966,2.8125 1.64944,2.8125 1.40978,0 1.92428,-0.8773 1.64944,-2.8125 z m 0.22556,-8.4375 c 0,-1.375 -0.5625,-2.5 -1.25,-2.5 -0.6875,0 -1.25,1.125 -1.25,2.5 0,1.375 0.5625,2.5 1.25,2.5 0.6875,0 1.25,-1.125 1.25,-2.5 z m 11.25,0.6988 c 0,-0.9907 -0.5625,-2.1489 -1.25,-2.5738 -0.6875,-0.4249 -1.25,0.3856 -1.25,1.8012 0,1.4156 0.5625,2.5738 1.25,2.5738 0.6875,0 1.25,-0.8106 1.25,-1.8012 z m -45.21943,-37.0626 12.90558,-8.3189 -18.88139,-13.3626 -18.88139,-13.3625 -3.68174,3.098 c -2.02496,1.7039 -5.39914,3.4752 -7.49819,3.9362 -3.47872,0.764 -3.75624,1.1882 -3.13608,4.7934 0.57791,3.3595 4.39264,30.7445 4.39264,31.5337 0,0.1475 1.87103,0.6193 4.15783,1.0483 2.28681,0.429 5.23994,1.5735 6.5625,2.5434 2.72708,1.9998 1.67357,2.5212 24.06024,-11.909 z m 108.04793,8.8638 c 2.77751,0 3.00943,-0.6589 4.50936,-12.8125 0.86969,-7.0469 1.88617,-15.0957 2.25885,-17.8861 0.67009,-5.0174 0.62234,-5.0901 -4.31127,-6.5683 -2.74388,-0.822 -5.68698,-2.3358 -6.54021,-3.3639 -0.85324,-1.0281 -2.30452,-1.8693 -3.22508,-1.8693 -1.97487,0 -37.46519,24.8112 -37.24377,26.037 0.0833,0.461 7.3437,5.445 16.13433,11.0756 l 15.98298,10.2375 4.75336,-2.425 c 2.61435,-1.3338 6.071,-2.425 7.68145,-2.425 z m -95.53255,-8.4101 c 1.60653,-0.9843 2.64303,-2.0676 2.30334,-2.4073 -0.63402,-0.634 -17.09929,9.3391 -17.09929,10.3571 0,0.522 7.87478,-3.7091 14.79595,-7.9498 z m 60.20405,5.4512 c 0,-0.6115 -9.74509,-7.0411 -10.67197,-7.0411 -1.76977,0 1.22913,2.7321 5.44047,4.9564 5.08145,2.684 5.2315,2.7438 5.2315,2.0847 z m 17.5,-41.5771 c 0,-0.9929 -27.97514,14.2621 -30.9375,16.8704 -1.54687,1.362 -2.8125,3.6193 -2.8125,5.0163 0,2.0898 2.9907,0.4266 16.875,-9.3846 9.28125,-6.5585 16.875,-12.1844 16.875,-12.5021 z m -71.25,20.2485 c 0,-3.1489 0.12704,-3.0659 -27.5,-17.9698 -4.46875,-2.4108 -7.5625,-3.7882 -6.875,-3.0611 1.36516,1.444 33.28902,24.0684 33.96131,24.0684 0.22753,0 0.41369,-1.3669 0.41369,-3.0375 z m 3.92823,-16.2434 c 2.95828,-3.3607 6.3991,-5.867 8.76974,-6.3876 l 3.90134,-0.8569 -0.79216,-10.1748 c -0.43569,-5.5962 -0.79554,-15.8795 -0.79966,-22.8518 l -0.007,-12.677 -3.4375,-0.847 c -1.89062,-0.4659 -5.125,-2.4388 -7.1875,-4.3843 l -3.75,-3.5374 -20.59365,13.03 c -11.3265,7.1665 -21.082,13.5183 -21.67887,14.1152 -0.61363,0.6136 -0.16124,2.4954 1.04103,4.3303 1.16944,1.7848 2.48743,6.202 2.92887,9.816 l 0.80262,6.5709 17.5,9.5584 c 9.625,5.2571 17.71033,9.6188 17.96741,9.6926 0.25708,0.074 2.65819,-2.3546 5.33582,-5.3966 z m 53.13686,-4.0956 17.93491,-9.6264 0.0275,-5.0611 c 0.0151,-2.7836 1.09756,-7.4181 2.40549,-10.2989 1.78472,-3.9311 2.01177,-5.5277 0.91004,-6.3994 -2.59682,-2.0546 -39.65828,-25.2378 -40.34603,-25.2378 -0.36509,0 -2.45689,1.3677 -4.64845,3.0393 -2.19155,1.6716 -5.52901,3.6264 -7.41659,4.344 l -3.43196,1.3049 0.0323,22.2184 0.0323,22.2184 4.91336,2.2645 c 2.71979,1.2535 6.0993,4.1833 7.5697,6.5625 1.46099,2.3639 2.97725,4.298 3.36948,4.298 0.39222,0 8.78385,-4.3319 18.64805,-9.6264 z"
           id="path6525"
           inkscape:connector-curvature="0" />
        <path
           style="fill:#232426;fill-opacity:1"
           d="m 172.47422,1275.1331 c -0.45833,-0.4584 -0.83333,-2.9008 -0.83333,-5.4276 0,-4.5279 0.12628,-4.6437 8.75293,-8.0282 l 8.75293,-3.4341 -2.49869,-3.1766 c -3.78712,-4.8145 -5.35449,-12.023 -3.81754,-17.5571 0.71303,-2.5675 1.29957,-5.3117 1.3034,-6.0982 0.008,-1.5968 -35.80366,-30.7202 -37.98301,-30.8894 -0.76176,-0.059 -3.35377,0.8193 -5.76002,1.9522 -2.40625,1.1329 -5.26267,2.3273 -6.34761,2.6543 -1.49329,0.4501 -2.65528,4.9523 -4.78215,18.5288 -8.45431,53.9664 -7.86671,51.0592 -10.32012,51.0592 -1.26507,0 -2.30012,-0.4722 -2.30012,-1.0494 0,-1.0499 -5.44286,-3.9506 -7.41303,-3.9506 -0.57496,0 -1.33959,1.125 -1.69916,2.5 -0.35957,1.375 -1.61578,2.5 -2.79157,2.5 -1.42805,0 -1.94141,-0.7263 -1.54623,-2.1875 0.32537,-1.2031 4.70117,-17.2539 9.72401,-35.6683 l 9.13242,-33.4808 -3.84747,-4.0192 c -9.28336,-9.6977 -6.92985,-24.9338 4.88166,-31.6029 1.87263,-1.0573 1.91042,-2.1006 0.4044,-11.1663 -0.91368,-5.5 -2.30742,-14.0278 -3.0972,-18.9507 -1.24731,-7.7747 -1.82149,-9.0474 -4.37055,-9.6872 -1.61403,-0.4051 -4.68566,-2.2099 -6.82584,-4.0108 -11.868252,-9.9865 -10.462942,-28.5379 2.81394,-37.1468 5.92487,-3.8418 16.12758,-4.561 21.95469,-1.5477 3.35626,1.7356 4.02958,1.4147 25.87543,-12.3301 l 22.4295,-14.1121 0.0999,-6.7324 c 0.16024,-10.7991 6.13613,-19.0524 16.19982,-22.3738 13.73961,-4.5344 28.99901,8.1689 27.8752,23.2059 l -0.42493,5.6857 22.39971,14.1282 c 21.33198,13.4547 22.55345,14.048 25.625,12.4451 3.92102,-2.0461 15.49185,-2.2239 19.24497,-0.2957 8.51772,4.376 13.71246,12.6052 13.71246,21.7222 0,9.5271 -4.44564,16.4143 -13.56708,21.0182 -3.78955,1.9129 -3.86873,2.1554 -6.69293,20.4939 l -2.858,18.5581 5.02676,5.0268 c 8.26975,8.2697 8.35776,19.9383 0.20841,27.6299 -2.04836,1.9334 -3.7243,4.1689 -3.7243,4.968 0,1.4222 17.12938,65.51 18.3819,68.774 0.40371,1.0521 -0.32521,1.6563 -1.99816,1.6563 -1.45983,0 -2.63374,-0.8029 -2.63374,-1.8012 0,-0.9907 -0.52035,-2.1229 -1.15632,-2.5159 -1.40307,-0.8671 -7.59368,1.7968 -7.59368,3.2677 0,0.5772 -1.125,1.0494 -2.5,1.0494 -1.375,0 -2.5,-0.2132 -2.5,-0.4738 0,-1.1412 -10.06047,-64.1835 -10.64636,-66.7137 -0.3582,-1.5469 -1.51224,-2.8125 -2.56453,-2.8125 -1.0523,0 -3.57615,-0.8599 -5.60857,-1.9109 l -3.69531,-1.9109 -19.05512,15.2437 c -10.48031,8.3841 -19.19827,15.3403 -19.37325,15.4583 -0.17497,0.1178 0.30812,2.0108 1.07353,4.2065 1.92947,5.5349 0.35185,14.3984 -3.34475,18.7915 l -3.06296,3.6402 8.76366,3.4383 8.76366,3.4383 0,5.4275 0,5.4275 -31.66666,0 c -17.41666,0 -32.04166,-0.375 -32.5,-0.8333 z m -54.58333,-9.207 c 0,-2.7776 -0.75145,-4.0786 -2.8125,-4.8694 -3.14194,-1.2055 -4.04805,-0.6564 -5.19269,3.1469 -0.58246,1.9354 -0.0521,2.9662 2.04701,3.9779 4.70066,2.2659 5.95818,1.7898 5.95818,-2.2554 z m 175.54362,2.5712 c 3.2148,-1.2222 4.08938,-4.2034 2.13643,-7.2824 -0.79998,-1.2612 -1.72641,-1.3099 -4.12533,-0.2169 -2.49592,1.1373 -2.99004,2.1157 -2.55733,5.064 0.6135,4.18 0.3411,4.0341 4.54623,2.4353 z m -174.29362,-13.0101 c 0,-3.1809 -0.62098,-4.3916 -2.50521,-4.8844 -3.59889,-0.9411 -5.06382,5.0576 -1.8152,7.4331 3.49474,2.5554 4.32041,2.0683 4.32041,-2.5487 z m 172.97603,2.6177 c 1.59844,-1.1688 1.97594,-2.5196 1.37416,-4.9173 -0.69229,-2.7583 -1.27645,-3.1405 -3.52745,-2.3078 -1.48376,0.5489 -2.6415,1.6367 -2.57275,2.4173 0.0687,0.7806 0.20938,2.5443 0.3125,3.9193 0.21794,2.9058 1.34456,3.1326 4.41354,0.8885 z M 119.4698,1241.2456 c -1.80488,-1.341 -2.28797,-1.2412 -3.02551,0.625 -1.5357,3.8858 -1.11966,6.3992 1.1341,6.8513 3.22963,0.648 4.74802,-5.3539 1.89141,-7.4763 z m 171.64303,3.8977 c -0.39707,-1.0348 -0.72195,-2.3979 -0.72195,-3.0291 0,-1.515 -3.39714,-1.48 -4.33947,0.045 -0.40535,0.6559 -0.38042,2.6133 0.0554,4.3498 0.67576,2.6925 1.15579,2.9629 3.26019,1.8367 1.47214,-0.7879 2.17649,-2.0798 1.74581,-3.2021 z m -168.76258,-12.5328 c -1.03374,-2.6939 -2.88072,-1.8737 -3.77134,1.6748 -1.07171,4.2701 1.94465,6.6128 3.41089,2.6492 0.54524,-1.4739 0.70745,-3.4197 0.36045,-4.324 z m 166.23747,3.7174 c -0.38326,-0.9988 -0.69684,-2.6137 -0.69684,-3.5887 0,-0.9751 -0.84375,-1.7728 -1.875,-1.7728 -1.03125,0 -1.875,1.079 -1.875,2.3978 0,3.9903 1.35028,6.2353 3.30029,5.487 1.01386,-0.3891 1.52981,-1.5246 1.14655,-2.5233 z m -164.6763,-12.0204 c 0.21754,-1.8376 -0.20434,-3.3411 -0.9375,-3.3411 -0.73317,0 -1.33303,0.7977 -1.33303,1.7728 0,0.975 -0.37088,2.7392 -0.82419,3.9205 -0.57835,1.5072 -0.29872,1.975 0.9375,1.5684 0.96893,-0.3187 1.93968,-2.083 2.15722,-3.9206 z m 161.78187,1.0154 c -0.8862,-4.6358 -2.80241,-5.101 -2.80241,-0.6803 0,2.3925 0.63696,3.8238 1.70166,3.8238 1.14374,0 1.50464,-1.0307 1.10075,-3.1435 z m -93.35606,-18.5827 c 2.10348,-16.9144 2.09827,-17.3838 -0.20677,-18.6438 -4.88367,-2.6695 -10.53864,-9.9678 -11.89399,-15.3504 -0.7658,-3.0413 -1.74746,-5.5217 -2.18147,-5.5121 -0.43401,0.01 -6.41411,3.0428 -13.28911,6.7402 -12.42972,6.6848 -12.50456,6.7533 -13.31032,12.17 -0.44567,2.996 -1.00817,6.0762 -1.25,6.8449 -0.52719,1.6758 37.9471,33.0219 39.1421,31.8901 0.45747,-0.4332 1.80278,-8.5958 2.98956,-18.1389 z m 48.12078,4.1722 c 16.84915,-13.5546 18.57913,-15.3042 17.3687,-17.5659 -0.73939,-1.3816 -1.3734,-4.6174 -1.40892,-7.1907 -0.0639,-4.6246 -0.20575,-4.754 -12.26186,-11.1841 -6.7085,-3.5779 -12.83127,-6.5053 -13.60616,-6.5053 -0.77489,0 -1.40889,1.2936 -1.40889,2.8748 0,3.9362 -5.60597,12.2606 -10.52805,15.6332 l -4.05851,2.781 2.23507,16.543 c 1.22929,9.0986 2.26127,17.2461 2.29328,18.1055 0.032,0.8594 0.64412,1.5625 1.36025,1.5625 0.71612,0 9.72291,-6.7743 20.01509,-15.054 z m -40.48167,8.4635 c 0.43807,-0.7088 -0.2612,-2.0622 -1.55394,-3.0074 -2.04799,-1.4976 -2.46337,-1.433 -3.22811,0.5021 -1.55182,3.9266 -1.15303,5.1378 1.46608,4.4529 1.38571,-0.3624 2.8779,-1.2388 3.31597,-1.9476 z m 14.16454,-0.3762 c 0,-2.3825 -0.56352,-3.1081 -2.17315,-2.7981 -2.98262,0.5744 -3.51345,4.413 -0.71071,5.1394 1.24237,0.322 2.39949,0.6506 2.57136,0.7304 0.17188,0.08 0.3125,-1.3025 0.3125,-3.0717 z m -88.74999,-3.0333 c 0,-1.375 -0.21564,-2.5 -0.47921,-2.5 -0.26357,0 -0.77341,1.125 -1.13298,2.5 -0.35957,1.375 -0.14392,2.5 0.47922,2.5 0.62313,0 1.13297,-1.125 1.13297,-2.5 z m 157.07784,-1.5625 c -0.34676,-0.8594 -0.63049,-0.1563 -0.63049,1.5625 0,1.7187 0.28373,2.4219 0.63049,1.5625 0.34676,-0.8594 0.34676,-2.2656 0,-3.125 z m -69.57785,-4.3004 c 0,-4.1659 -3.00449,-3.0868 -3.51979,1.2641 -0.30743,2.5959 0.0383,3.1673 1.5625,2.5824 1.07652,-0.4131 1.95729,-2.144 1.95729,-3.8465 z m -12.49999,0.9367 c 0,-1.3345 -0.61151,-2.8042 -1.35891,-3.2661 -1.91136,-1.1813 -4.12343,1.3824 -3.2213,3.7333 1.0715,2.7922 4.58021,2.4343 4.58021,-0.4672 z m 11.60015,-10.1198 c -1.00017,-3.8247 -2.85016,-2.8842 -2.85016,1.449 0,3.1995 0.31475,3.6419 1.74596,2.4541 0.96028,-0.797 1.45717,-2.5533 1.1042,-3.9031 z m -11.82571,0.9835 c -0.21969,-1.5469 -0.96194,-2.8125 -1.64944,-2.8125 -0.6875,0 -1.42975,1.2656 -1.64944,2.8125 -0.27484,1.9352 0.23966,2.8125 1.64944,2.8125 1.40978,0 1.92428,-0.8773 1.64944,-2.8125 z m 0.22556,-8.4375 c 0,-1.375 -0.5625,-2.5 -1.25,-2.5 -0.6875,0 -1.25,1.125 -1.25,2.5 0,1.375 0.5625,2.5 1.25,2.5 0.6875,0 1.25,-1.125 1.25,-2.5 z m 11.24999,0.6988 c 0,-0.9907 -0.5625,-2.1489 -1.25,-2.5738 -0.6875,-0.4249 -1.25,0.3856 -1.25,1.8012 0,1.4156 0.5625,2.5738 1.25,2.5738 0.6875,0 1.25,-0.8106 1.25,-1.8012 z m -45.21942,-37.0626 12.90558,-8.3189 -18.88139,-13.3626 -18.88139,-13.3626 -3.68174,3.098 c -2.02496,1.7039 -5.39914,3.4752 -7.49819,3.9363 -3.47872,0.764 -3.75624,1.1882 -3.13608,4.7934 0.57791,3.3595 4.39264,30.7445 4.39264,31.5337 0,0.1475 1.87103,0.6193 4.15783,1.0483 2.28681,0.429 5.23994,1.5735 6.5625,2.5434 2.72708,1.9998 1.67357,2.5212 24.06024,-11.909 z m 108.04792,8.8638 c 2.77751,0 3.00943,-0.6589 4.50936,-12.8125 0.86969,-7.0469 1.88617,-15.0957 2.25885,-17.8861 0.67009,-5.0174 0.62234,-5.0901 -4.31127,-6.5684 -2.74388,-0.822 -5.68698,-2.3358 -6.54021,-3.3639 -0.85324,-1.0281 -2.30452,-1.8693 -3.22508,-1.8693 -1.97487,0 -37.46519,24.8113 -37.24377,26.0371 0.0833,0.461 7.3437,5.445 16.13433,11.0756 l 15.98298,10.2375 4.75336,-2.425 c 2.61435,-1.3338 6.071,-2.425 7.68145,-2.425 z m -95.53254,-8.4101 c 1.60653,-0.9843 2.64303,-2.0676 2.30334,-2.4073 -0.63402,-0.634 -17.09929,9.3391 -17.09929,10.3571 0,0.522 7.87478,-3.7091 14.79595,-7.9498 z m 60.20404,5.4512 c 0,-0.6115 -9.74509,-7.0411 -10.67197,-7.0411 -1.76977,0 1.22913,2.7321 5.44047,4.9564 5.08145,2.684 5.2315,2.7438 5.2315,2.0847 z m 17.5,-41.5772 c 0,-0.9929 -27.97514,14.2622 -30.9375,16.8705 -1.54687,1.362 -2.8125,3.6193 -2.8125,5.0163 0,2.0898 2.9907,0.4266 16.875,-9.3846 9.28125,-6.5586 16.875,-12.1845 16.875,-12.5022 z m -71.24999,20.2486 c 0,-3.1489 0.12704,-3.0659 -27.5,-17.9699 -4.46875,-2.4108 -7.5625,-3.7882 -6.875,-3.0611 1.36516,1.444 33.28902,24.0685 33.96131,24.0685 0.22753,0 0.41369,-1.3669 0.41369,-3.0375 z m 3.92823,-16.2435 c 2.95828,-3.3607 6.3991,-5.867 8.76974,-6.3876 l 3.90133,-0.8569 -0.79216,-10.1748 c -0.43568,-5.5962 -0.79553,-15.8795 -0.79965,-22.8518 l -0.007,-12.677 -3.4375,-0.847 c -1.89062,-0.4659 -5.125,-2.4388 -7.1875,-4.3843 l -3.75,-3.5374 -20.59365,13.03 c -11.3265,7.1665 -21.082,13.5183 -21.67887,14.1152 -0.61363,0.6136 -0.16124,2.4954 1.04103,4.3303 1.16944,1.7848 2.48743,6.202 2.92887,9.816 l 0.80262,6.5709 17.5,9.5584 c 9.625,5.2571 17.71033,9.6189 17.96741,9.6927 0.25708,0.074 2.65819,-2.3547 5.33582,-5.3967 z m 53.13685,-4.0956 17.93491,-9.6264 0.0275,-5.0611 c 0.0151,-2.7836 1.09756,-7.4181 2.40549,-10.2989 1.78472,-3.9311 2.01177,-5.5277 0.91004,-6.3994 -2.59682,-2.0546 -39.65828,-25.2378 -40.34603,-25.2378 -0.36509,0 -2.45689,1.3677 -4.64845,3.0393 -2.19155,1.6716 -5.52901,3.6264 -7.41659,4.344 l -3.43196,1.3049 0.0323,22.2184 0.0323,22.2184 4.91336,2.2645 c 2.71979,1.2535 6.0993,4.1833 7.5697,6.5625 1.46099,2.364 2.97725,4.2981 3.36948,4.2981 0.39222,0 8.78385,-4.332 18.64805,-9.6265 z"
           id="path6525-0"
           inkscape:connector-curvature="0" />
      </g>
      <g
         transform="matrix(1.0194261,0,0,1.7896275,-23.221857,-370.5062)"
         id="g4498">
        <text
           xml:space="preserve"
           style="font-style:normal;font-variant:normal;font-weight:normal;font-stretch:normal;font-size:80px;line-height:125%;font-family:Kenzo;-inkscape-font-specification:Kenzo;letter-spacing:0px;word-spacing:0px;fill:#fafbfb;fill-opacity:1;stroke:none;stroke-width:1px;stroke-linecap:butt;stroke-linejoin:miter;stroke-opacity:1"
           x="370"
           y="532.36218"
           id="text4476"
           sodipodi:linespacing="125%"><tspan
             sodipodi:role="line"
             id="tspan4478"
             x="370"
             y="532.36218">BRUSSELS</tspan></text>
        <text
           xml:space="preserve"
           style="font-style:normal;font-variant:normal;font-weight:normal;font-stretch:normal;font-size:80px;line-height:125%;font-family:Kenzo;-inkscape-font-specification:Kenzo;letter-spacing:0px;word-spacing:0px;fill:#131414;fill-opacity:1;stroke:none;stroke-width:1px;stroke-linecap:butt;stroke-linejoin:miter;stroke-opacity:1"
           x="374.83173"
           y="532.93365"
           id="text4476-0"
           sodipodi:linespacing="125%"><tspan
             sodipodi:role="line"
             id="tspan4478-0"
             x="374.83173"
             y="532.93365">BRUSSELS</tspan></text>
      </g>
      <path
         sodipodi:nodetypes="ssssscsscsssscsscsscsscsscsscsscssssscs"
         inkscape:connector-curvature="0"
         id="path4584-9"
         d="m 322.93666,749.02198 c -26.36559,-16.35417 -31.41196,-17.94489 -61.87283,-19.50347 -18.24124,-0.93341 -34.70706,-2.81205 -36.59074,-4.17486 -1.88367,-1.36279 -11.16988,-15.14259 -20.63602,-30.62181 -15.34311,-25.08935 -20.44783,-30.08394 -47.03155,-46.01695 l -29.82039,-17.87293 -2.53474,-35.63903 c -2.5127,-35.32901 -2.69412,-35.90082 -20.85269,-65.72571 l -18.317931,-30.0866 14.762261,-33.29251 c 13.15983,-29.67856 14.5292,-36.16928 12.61528,-59.79434 -3.46009,-42.71051 -3.82656,-41.78374 25.60961,-64.764 24.07137,-18.79205 28.43954,-24.37234 41.38316,-52.86634 l 14.47109,-31.85656 33.39688,-6.1852 c 31.94749,-5.91677 34.70412,-7.17597 63.51781,-29.01484 l 30.12096,-22.82961 31.04477,10.52426 c 29.29484,9.93106 33.18686,10.23775 69.04767,5.4406 l 38.00288,-5.08371 24.08143,23.70052 c 21.42672,21.08782 27.79139,24.84947 57.73553,34.12312 l 33.6541,10.42259 10.39766,32.95387 c 9.59384,30.40608 12.33077,34.97114 35.40054,59.04649 l 25.00281,26.09265 -5.85319,35.60302 c -5.80983,35.33913 -5.77448,35.84424 4.76465,68.14107 l 10.61783,32.53804 -21.85118,28.57585 c -19.64154,25.68618 -22.50439,32.05148 -28.31126,62.94778 l -6.4601,34.37202 -31.95247,14.47528 c -29.22469,13.2395 -33.75495,16.77654 -53.06619,41.43166 -11.61258,14.82601 -23.55445,27.40838 -26.53745,27.96083 -2.98304,0.55247 -19.18067,0.0834 -35.99481,-1.04236 -30.42638,-2.03715 -30.71229,-1.9842 -60.39561,11.18545 -16.40347,7.27774 -31.85316,13.54951 -34.33266,13.93724 -2.47953,0.38762 -17.4263,-7.30798 -33.21511,-17.10151 z"
         style="fill:none;fill-opacity:1;stroke:#b49acb;stroke-width:4.19999981;stroke-miterlimit:4;stroke-dasharray:none;stroke-opacity:1" />
      <path
         inkscape:connector-curvature="0"
         id="path4612"
         d="m 439.12031,465.58342 c -0.14347,-0.0908 -0.0978,-0.11989 0.16365,-0.10418 0.19945,0.0121 0.3331,0.0697 0.29698,0.12816 -0.0854,0.13825 -0.21506,0.1315 -0.46063,-0.024 z m 0.12809,-0.35081 c 0,-0.0307 0.099,-0.0937 0.22008,-0.14019 0.12619,-0.0484 0.18311,-0.0247 0.13343,0.0558 -0.0833,0.13474 -0.35351,0.19929 -0.35351,0.0844 z m 54.69977,-19.47811 c -0.12281,-0.13649 -0.44239,-0.63104 -0.71018,-1.099 -0.26779,-0.46796 -1.09576,-1.90375 -1.83991,-3.19065 -0.74416,-1.28689 -2.14469,-3.71178 -3.11228,-5.38864 -0.9676,-1.67686 -2.24025,-3.87841 -2.82811,-4.89233 -0.58786,-1.01391 -2.42742,-4.20456 -4.08792,-7.09032 -1.6605,-2.88576 -3.13243,-5.43827 -3.27096,-5.67225 -0.13853,-0.23399 -0.61933,-1.06355 -1.06845,-1.84349 -2.7689,-4.80846 -8.31665,-14.40191 -9.02051,-15.59871 -0.45869,-0.77993 -0.8721,-1.56635 -0.91869,-1.74758 -0.17038,-0.66293 0.15541,-0.94953 2.81183,-2.47355 1.42946,-0.8201 3.8251,-2.19999 5.32363,-3.06643 1.49854,-0.86644 2.87658,-1.57534 3.06232,-1.57534 0.42767,0 0.60098,0.20482 1.49991,1.77258 0.40248,0.70194 0.79129,1.37198 0.86402,1.48897 0.0727,0.11699 0.35042,0.59558 0.61708,1.06355 0.26667,0.46796 1.29802,2.25472 2.29189,3.97058 0.99388,1.71586 2.54248,4.396 3.44134,5.95586 2.09334,3.63277 3.32146,5.76053 5.60667,9.71375 1.78148,3.08181 3.3931,5.87531 7.28116,12.62078 1.01149,1.75485 2.74482,4.76184 3.85184,6.68219 1.21548,2.10846 2.01278,3.64159 2.01278,3.87035 0,0.40185 -0.20188,0.55073 -2.69432,1.98693 -0.58496,0.33707 -2.43553,1.40962 -4.11239,2.38345 -4.4637,2.59227 -4.55081,2.62937 -5.00075,2.1293 z m -27.71466,-48.25169 c -0.33751,-0.13588 -0.89272,-1.09146 -0.89272,-1.53647 0,-0.47765 0.43849,-0.81339 2.90703,-2.22585 1.32589,-0.75866 3.46363,-1.98974 4.75052,-2.73573 3.37904,-1.95879 3.32351,-1.93397 3.84417,-1.7183 0.5916,0.24504 1.0901,1.24648 0.89567,1.79933 -0.13151,0.37394 -1.55836,1.309 -4.17261,2.73445 -0.42897,0.2339 -0.87566,0.48843 -0.99265,0.56561 -0.31051,0.20486 -4.66474,2.69924 -5.24137,3.00258 -0.54405,0.28622 -0.6451,0.29674 -1.09804,0.11438 z m -1.92231,-3.08224 c -0.12249,-0.13649 -0.85396,-1.34275 -1.6255,-2.68057 l -1.4028,-2.43241 -0.77174,0.27584 c -1.1678,0.41741 -4.4309,1.21862 -5.94766,1.46037 -9.21108,1.46812 -18.66362,-0.5193 -26.61874,-5.59664 -2.3361,-1.49101 -4.15808,-2.96738 -6.28785,-5.0951 -4.83729,-4.83264 -8.14104,-10.56274 -9.89628,-17.16437 -2.19775,-8.26594 -1.57792,-16.63855 1.83276,-24.75669 0.7065,-1.68163 1.17812,-2.58014 2.75327,-5.24534 0.62719,-1.06123 2.16916,-3.13235 3.40126,-4.56845 5.5936,-6.51972 13.40288,-10.97127 22.053,-12.57093 9.50361,-1.75749 19.59521,0.32123 27.72268,5.71047 8.29205,5.49837 14.18233,14.16212 16.21296,23.84694 0.61275,2.92248 0.7866,4.64897 0.78535,7.79935 -0.002,6.26396 -1.17021,11.26774 -3.95462,16.94588 -1.95677,3.99034 -4.13128,6.99521 -7.44869,10.29305 -1.74553,1.73523 -1.91927,1.95198 -1.7501,2.18333 0.62139,0.8498 2.74958,4.7697 2.74958,5.06443 0,0.46781 -0.16605,0.59775 -2.41071,1.88645 -1.05291,0.6045 -2.10582,1.21165 -2.33981,1.34921 -3.58545,2.10799 -6.21444,3.54334 -6.48999,3.54334 -0.18901,0 -0.44388,-0.11168 -0.56637,-0.24816 z m -12.15841,-10.10874 c 6.83881,-0.74195 13.80181,-4.19931 18.70074,-9.28556 4.63722,-4.81452 7.59078,-10.94998 8.45012,-17.55355 0.2777,-2.13392 0.27906,-5.78115 0.003,-8.01102 -0.84332,-6.81177 -4.23388,-13.51677 -9.30325,-18.39761 -8.16896,-7.86515 -20.21289,-10.63194 -31.03861,-7.13033 -7.71656,2.49595 -14.42375,8.20435 -18.05066,15.36266 -2.35215,4.64238 -3.37853,8.94247 -3.38399,14.17753 -0.003,3.43917 0.36913,6.0158 1.31282,9.07562 1.54908,5.0227 3.97376,9.02921 7.77689,12.85038 2.68949,2.70225 4.76342,4.19308 8.23255,5.91791 5.27753,2.62395 11.22459,3.65314 17.30039,2.99397 z m -5.95587,-2.34369 c -0.19498,-0.0337 -0.92883,-0.13071 -1.63078,-0.21562 -0.70194,-0.0849 -2.0101,-0.33749 -2.90703,-0.56129 -10.10651,-2.52182 -17.9063,-10.14081 -20.69168,-20.21203 -0.75768,-2.73956 -0.92018,-4.065 -0.92018,-7.50525 0,-3.4146 0.15158,-4.66442 0.89818,-7.40581 1.44109,-5.29141 4.30634,-10.02992 8.19096,-13.54609 0.6678,-0.60446 1.25841,-1.099 1.31248,-1.099 0.12941,0 2.07641,3.38803 2.02098,3.51677 -0.0235,0.0546 -0.63149,0.70551 -1.35108,1.44645 -2.01064,2.07028 -3.01271,3.43575 -4.19085,5.71065 -4.14265,7.99915 -3.70242,17.23939 1.18048,24.77774 2.93683,4.53397 7.48904,8.01121 12.80618,9.78209 4.6113,1.5358 10.17984,1.62296 14.57234,0.22807 l 1.07279,-0.34067 0.19718,0.30574 c 0.10844,0.16816 0.58211,0.97577 1.0526,1.7947 l 0.85542,1.48897 -0.59719,0.26238 c -0.72381,0.31801 -3.41276,1.01499 -5.06409,1.31263 -1.14651,0.20666 -6.03405,0.39304 -6.80671,0.25957 z"
         style="fill:#ffffff;fill-opacity:1" />
      <path
         inkscape:connector-curvature="0"
         id="path4612-7"
         d="m 443.65569,464.71466 c -0.14347,-0.0908 -0.0978,-0.11989 0.16365,-0.10418 0.19945,0.0121 0.3331,0.0697 0.29698,0.12816 -0.0854,0.13825 -0.21506,0.1315 -0.46063,-0.024 z m 0.12809,-0.35081 c 0,-0.0307 0.099,-0.0937 0.22008,-0.14019 0.12619,-0.0484 0.18311,-0.0247 0.13343,0.0558 -0.0833,0.13474 -0.35351,0.19929 -0.35351,0.0844 z m 54.69977,-19.47811 c -0.12281,-0.13649 -0.44239,-0.63104 -0.71018,-1.099 -0.26779,-0.46796 -1.09576,-1.90375 -1.83991,-3.19065 -0.74416,-1.28689 -2.14469,-3.71178 -3.11228,-5.38864 -0.9676,-1.67686 -2.24025,-3.87841 -2.82811,-4.89233 -0.58786,-1.01391 -2.42742,-4.20456 -4.08792,-7.09032 -1.6605,-2.88576 -3.13243,-5.43827 -3.27096,-5.67225 -0.13853,-0.23399 -0.61933,-1.06355 -1.06845,-1.84349 -2.7689,-4.80846 -8.31665,-14.40191 -9.02051,-15.59871 -0.45869,-0.77993 -0.8721,-1.56635 -0.91869,-1.74758 -0.17038,-0.66293 0.15541,-0.94953 2.81183,-2.47355 1.42946,-0.8201 3.8251,-2.19999 5.32363,-3.06643 1.49854,-0.86644 2.87658,-1.57534 3.06232,-1.57534 0.42767,0 0.60098,0.20482 1.49991,1.77258 0.40248,0.70194 0.79129,1.37198 0.86402,1.48897 0.0727,0.11699 0.35042,0.59558 0.61708,1.06355 0.26667,0.46796 1.29802,2.25472 2.29189,3.97058 0.99388,1.71586 2.54248,4.396 3.44134,5.95586 2.09334,3.63277 3.32146,5.76053 5.60667,9.71375 1.78148,3.08181 3.3931,5.87531 7.28116,12.62078 1.01149,1.75485 2.74482,4.76184 3.85184,6.68219 1.21548,2.10846 2.01278,3.64159 2.01278,3.87035 0,0.40185 -0.20188,0.55073 -2.69432,1.98693 -0.58496,0.33707 -2.43553,1.40962 -4.11239,2.38345 -4.4637,2.59227 -4.55081,2.62937 -5.00075,2.1293 z m -27.71466,-48.25169 c -0.33751,-0.13588 -0.89272,-1.09146 -0.89272,-1.53647 0,-0.47765 0.43849,-0.81339 2.90703,-2.22585 1.32589,-0.75866 3.46363,-1.98974 4.75052,-2.73573 3.37904,-1.95879 3.32351,-1.93397 3.84417,-1.7183 0.5916,0.24504 1.0901,1.24648 0.89567,1.79933 -0.13151,0.37394 -1.55836,1.309 -4.17261,2.73445 -0.42897,0.2339 -0.87566,0.48843 -0.99265,0.56561 -0.31051,0.20486 -4.66474,2.69924 -5.24137,3.00258 -0.54405,0.28622 -0.6451,0.29674 -1.09804,0.11438 z m -1.92231,-3.08224 c -0.12249,-0.13649 -0.85396,-1.34275 -1.6255,-2.68057 l -1.4028,-2.43241 -0.77174,0.27584 c -1.1678,0.41741 -4.4309,1.21862 -5.94766,1.46037 -9.21108,1.46812 -18.66362,-0.5193 -26.61874,-5.59664 -2.3361,-1.49101 -4.15808,-2.96738 -6.28785,-5.0951 -4.83729,-4.83264 -8.14104,-10.56274 -9.89628,-17.16437 -2.19775,-8.26594 -1.57792,-16.63855 1.83276,-24.75669 0.7065,-1.68163 1.17812,-2.58014 2.75327,-5.24534 0.62719,-1.06123 2.16916,-3.13235 3.40126,-4.56845 5.5936,-6.51972 13.40288,-10.97127 22.053,-12.57093 9.50361,-1.75749 19.59521,0.32123 27.72268,5.71047 8.29205,5.49837 14.18233,14.16212 16.21296,23.84694 0.61275,2.92248 0.7866,4.64897 0.78535,7.79935 -0.002,6.26396 -1.17021,11.26774 -3.95462,16.94588 -1.95677,3.99034 -4.13128,6.99521 -7.44869,10.29305 -1.74553,1.73523 -1.91927,1.95198 -1.7501,2.18333 0.62139,0.8498 2.74958,4.7697 2.74958,5.06443 0,0.46781 -0.16605,0.59775 -2.41071,1.88645 -1.05291,0.6045 -2.10582,1.21165 -2.33981,1.34921 -3.58545,2.10799 -6.21444,3.54334 -6.48999,3.54334 -0.18901,0 -0.44388,-0.11168 -0.56637,-0.24816 z m -12.15841,-10.10874 c 6.83881,-0.74195 13.80181,-4.19931 18.70074,-9.28556 4.63722,-4.81452 7.59078,-10.94998 8.45012,-17.55355 0.2777,-2.13392 0.27906,-5.78115 0.003,-8.01102 -0.84332,-6.81177 -4.23388,-13.51677 -9.30325,-18.39761 -8.16896,-7.86515 -20.21289,-10.63194 -31.03861,-7.13033 -7.71656,2.49595 -14.42375,8.20435 -18.05066,15.36266 -2.35215,4.64238 -3.37853,8.94247 -3.38399,14.17753 -0.003,3.43917 0.36913,6.0158 1.31282,9.07562 1.54908,5.0227 3.97376,9.02921 7.77689,12.85038 2.68949,2.70225 4.76342,4.19308 8.23255,5.91791 5.27753,2.62395 11.22459,3.65314 17.30039,2.99397 z m -5.95587,-2.34369 c -0.19498,-0.0337 -0.92883,-0.13071 -1.63078,-0.21562 -0.70194,-0.0849 -2.0101,-0.33749 -2.90703,-0.56129 -10.10651,-2.52182 -17.9063,-10.14081 -20.69168,-20.21203 -0.75768,-2.73956 -0.92018,-4.065 -0.92018,-7.50525 0,-3.4146 0.15158,-4.66442 0.89818,-7.40581 1.44109,-5.29141 4.30634,-10.02992 8.19096,-13.54609 0.6678,-0.60446 1.25841,-1.099 1.31248,-1.099 0.12941,0 2.07641,3.38803 2.02098,3.51677 -0.0235,0.0546 -0.63149,0.70551 -1.35108,1.44645 -2.01064,2.07028 -3.01271,3.43575 -4.19085,5.71065 -4.14265,7.99915 -3.70242,17.23939 1.18048,24.77774 2.93683,4.53397 7.48904,8.01121 12.80618,9.78209 4.6113,1.5358 10.17984,1.62296 14.57234,0.22807 l 1.07279,-0.34067 0.19718,0.30574 c 0.10844,0.16816 0.58211,0.97577 1.0526,1.7947 l 0.85542,1.48897 -0.59719,0.26238 c -0.72381,0.31801 -3.41276,1.01499 -5.06409,1.31263 -1.14651,0.20666 -6.03405,0.39304 -6.80671,0.25957 z"
         style="fill:#b47fb7;fill-opacity:1" />
      <g
         transform="matrix(0.31453937,0,0,0.31453937,74.734126,346.72502)"
         id="g4429">
        <path
           style="fill:#dadcdd;fill-opacity:1"
           d="m 655.93557,1003.9008 c -8.25,-1.2166 -29.9063,-4.25617 -48.125,-6.75457 -18.2188,-2.4983 -34.9646,-4.87287 -37.2129,-5.27687 l -4.088,-0.7345 0.338,-25.16848 0.3379,-25.16861 20.285,-0.3434 c 18.7184,-0.3168 20.3869,-0.5337 21.6043,-2.80836 1.6586,-3.0992 7.8073,-6.2038 20.712,-10.4579 11.0651,-3.6477 15.5237,-7.7239 15.5237,-14.1923 0,-6.5329 -3.2806,-16.2456 -7.1316,-21.114 -4.5822,-5.7928 -16.7525,-29.8263 -19.5385,-38.584 -1.0936,-3.4375 -2.8832,-10.2642 -3.977,-15.1705 -1.2941,-5.8046 -3.933,-12.1355 -7.5551,-18.125 -8.7827,-14.52306 -9.8773,-19.70384 -8.1281,-38.47199 1.4773,-15.85092 6.4988,-42.89215 9.6161,-51.78332 0.9258,-2.64043 4.5686,-9.57765 8.0951,-15.41605 3.5266,-5.83841 5.9242,-11.03604 5.328,-11.55029 -0.5961,-0.51425 -5.355,-4.36915 -10.5752,-8.56642 -10.3008,-8.28225 -12.4288,-10.89727 -14.8312,-18.22537 l -1.5765,-4.80888 -5.8005,0.82442 c -64.93891,9.22974 -125.85997,38.86216 -172.66003,83.98301 -8.09229,7.80194 -15.36141,14.18534 -16.1536,14.18534 -3.11549,0 -2.68707,-3.92033 0.92712,-8.48361 5.07789,-6.41135 27.72163,-26.4061 41.65746,-36.78415 39.85335,-29.67888 93.3515,-51.95941 140.65805,-58.58028 l 11.4795,-1.60662 1.8898,-5.08518 c 1.0395,-2.79683 2.2555,-7.33516 2.7023,-10.08516 1.3564,-8.34833 8.6889,-17.84236 16.7484,-21.68559 6.6295,-3.16133 7.2391,-3.86786 13.2005,-15.29783 3.4375,-6.59088 8.9371,-15.30963 12.2215,-19.375 6.5837,-8.14949 15.8966,-25.54187 15.9157,-29.72383 0.022,-4.78416 5.7012,-15.01586 12.4002,-22.33969 4.163,-4.55135 11.8102,-10.44927 20.9285,-16.14126 22.6661,-14.14902 23.1268,-17.2171 4.2695,-28.43699 -21.4048,-12.73562 -27.4987,-21.20417 -25.6878,-35.69781 0.7498,-6.00152 0.5552,-6.8013 -2.1108,-8.6737 -2.2296,-1.56588 -2.9773,-3.3348 -3.105,-7.34544 -0.092,-2.90557 -2.1658,-10.9066 -4.6074,-17.78005 -3.032,-8.53547 -4.6214,-15.47004 -5.0136,-21.875 -0.3158,-5.1578 -1.1956,-10.9613 -1.955,-12.89668 -0.7595,-1.93538 -1.3808,-4.06717 -1.3808,-4.7373 0,-0.67013 -1.125,-3.42361 -2.5,-6.11883 -3.2921,-6.45293 -3.1386,-10.44849 0.7199,-18.75 5.5555,-11.95235 8.7259,-14.2236 22.5965,-16.18792 5.8931,-0.83456 8.6119,-1.87286 10.2717,-3.92263 1.7272,-2.13294 4.2486,-3.02738 10.7358,-3.80836 5.4424,-0.65521 10.4916,-2.20051 14.1006,-4.31551 l 5.6221,-3.2948 25.1642,0.90655 c 13.8403,0.4986 26.2892,1.47571 27.6642,2.17133 4.5337,2.29364 15.625,15.43063 15.625,18.50685 0,0.65697 0.7566,1.19449 1.6812,1.19449 2.7002,0 5.4328,3.9892 6.3927,9.33246 0.4899,2.7266 1.9674,5.71162 3.2834,6.63338 1.316,0.92176 2.3927,2.49813 2.3927,3.50305 0,1.00492 1.4503,4.60075 3.2228,7.99074 2.7476,5.25455 3.1034,7.14084 2.4128,12.78949 -0.5799,4.74263 -0.2524,7.94678 1.1521,11.27323 2.6187,6.20187 2.4971,7.46643 -1.1229,11.67929 -4.2428,4.9376 -4.9206,9.23364 -2.4365,15.44205 1.5243,3.80964 1.8837,7.08167 1.3121,11.94523 -1.078,9.17221 -1.461,9.87508 -7.1114,13.05076 -5.8322,3.27791 -8.679,8.13186 -8.679,14.79824 0,7.34164 1.2316,7.90774 15.2113,6.99161 11.9637,-0.78403 12.4062,-0.71486 20.3066,3.17448 6.0458,2.97633 10.2173,6.36379 16.5917,13.47308 8.649,9.64611 10.9718,11.94671 24.4063,24.17291 4.155,3.78125 9.0293,9.06003 10.8318,11.7306 1.8025,2.67059 4.2271,6.28123 5.3879,8.02364 4.7651,7.15246 3.9223,27.07489 -1.6059,37.96069 -3.7699,7.42342 -15.6913,19.33422 -25.4211,25.39853 -4.9739,3.1001 -9.4168,5.63654 -9.8731,5.63654 -0.4564,0 -3.5029,1.90143 -6.7701,4.22539 -3.2672,2.32396 -8.2845,5.40542 -11.1496,6.84769 -8.0751,4.06502 -21.427,16.04893 -24.3325,21.83943 -1.4385,2.86686 -3.6433,6.3379 -4.8996,7.71342 -1.2562,1.37549 -4.0052,7.37736 -6.1089,13.33745 -3.084,8.73758 -3.8248,12.83787 -3.8248,21.16921 0,18.93085 -5.7929,35.00259 -15.4762,42.93737 -3.3044,2.70769 -6.3915,6.67255 -7.6313,9.8011 -1.1451,2.88967 -3.7622,7.88944 -5.8157,11.11062 -2.0535,3.22117 -4.3078,8.00242 -5.0095,10.625 -0.7017,2.62257 -2.8251,6.73707 -4.7187,9.14332 -8.1693,10.38114 -8.0505,13.43849 1.0672,27.46425 9.6157,14.79195 10.5576,18.5996 10.3676,41.9108 -0.09,11 -0.7479,25.0625 -1.4629,31.25 -0.715,6.1875 -1.3046,18.7051 -1.3103,27.817 -0.01,14.1914 0.3483,17.2359 2.4898,21.2315 3.2012,5.9727 3.2012,13.734 0,17.8265 -1.3444,1.7187 -2.4569,3.5468 -2.4722,4.0625 -0.015,0.51556 8.9722,0.93746 19.9722,0.93746 l 20,0 0,25.48581 0,25.48578 -4.0625,0.7241 c -8.0744,1.43897 -113.2394,14.55024 -115.4972,14.39934 -1.2734,-0.085 -9.0653,-1.1503 -17.3153,-2.367 z m -376.25002,-2.5791 c -12.00051,-1.62677 -23.39392,-4.64607 -25.51762,-6.76227 -4.20103,-4.18617 5.22468,-8.15464 25.51762,-10.74354 16.68318,-2.1284 61.12255,-1.8141 76.39075,0.5403 27.33028,4.21437 30.48682,10.22544 7.98425,15.20464 -11.13559,2.46397 -70.10923,3.69477 -84.375,1.76087 z m 35.25154,-28.18918 c -1.07385,-1.07377 -1.1689,-16.99341 -0.11781,-19.73251 0.90176,-2.34987 4.98031,-2.64187 5.7963,-0.4147 0.31487,0.8593 0.23443,5.7754 -0.17877,10.92447 -0.56609,7.05437 -1.22845,9.45284 -2.68722,9.73064 -1.06477,0.2028 -2.3304,-0.026 -2.8125,-0.5079 z m 2.08994,-33.54715 c -1.09419,-2.85136 2.03386,-19.14526 3.80601,-19.82526 0.86857,-0.3333 2.32223,-0.1468 3.23036,0.4144 1.3471,0.8326 1.37584,2.6875 0.15608,10.0734 -0.82228,4.9791 -1.79013,9.53036 -2.15076,10.11386 -1.05869,1.713 -4.27658,1.2174 -5.04169,-0.7764 z m 6.19566,-31.39156 c -0.98409,-2.5645 2.96792,-18.2699 4.8974,-19.4623 2.02348,-1.2506 4.69611,0.1945 4.64654,2.5125 -0.0242,1.1296 -1.06535,5.71 -2.31378,10.1788 -2.30554,8.2527 -5.51001,11.2536 -7.23016,6.771 z m 8.90194,-30.8541 c -0.80727,-2.1037 3.99349,-15.7596 6.4588,-18.3723 1.51569,-1.6063 1.95943,-1.5981 3.62475,0.067 1.69685,1.6969 1.52116,2.8164 -1.66048,10.5804 -3.45562,8.4326 -6.92906,11.618 -8.42307,7.7247 z m 13.49842,-28.0648 c -2.47491,-0.8878 -1.79541,-4.1631 2.53515,-12.2198 3.98992,-7.4231 7.43821,-9.9478 8.78679,-6.4335 0.64608,1.6837 -6.9177,17.6183 -8.88809,18.7246 -0.47924,0.269 -1.57448,0.237 -2.43385,-0.071 z m 14.27084,-28.6855 c -1.60226,-1.6022 -0.79606,-3.8367 4.1394,-11.47285 2.73501,-4.23159 5.84641,-7.6938 6.91423,-7.6938 3.92768,0 3.30493,3.90616 -1.89521,11.88765 -4.93471,7.5741 -7.12362,9.3138 -9.15842,7.279 z m 17.91666,-27.29165 c -1.7165,-2.06825 -1.95634,-1.62716 6.59254,-12.124 4.73428,-5.81305 8.4183,-6.8789 8.39817,-2.42976 -0.01,2.20329 -10.78069,16.42876 -12.43892,16.42876 -0.54763,0 -1.69593,-0.84375 -2.55179,-1.875 z"
           id="path4412"
           inkscape:connector-curvature="0" />
        <path
           style="fill:#131414;fill-opacity:1"
           d="m 666.96626,1003.0999 c -8.25,-1.2166 -29.9063,-4.25617 -48.125,-6.75457 -18.2188,-2.4983 -34.9646,-4.87287 -37.2129,-5.27687 l -4.088,-0.7345 0.338,-25.16848 0.3379,-25.16861 20.285,-0.3434 c 18.7184,-0.31677 20.3869,-0.53367 21.6043,-2.80827 1.6586,-3.0992 7.8073,-6.20376 20.712,-10.45786 11.0651,-3.6477 15.5237,-7.7239 15.5237,-14.1923 0,-6.5329 -3.2806,-16.2456 -7.1316,-21.114 -4.5822,-5.79284 -16.7525,-29.82634 -19.5385,-38.58404 -1.0936,-3.4375 -2.8832,-10.2642 -3.977,-15.1705 -1.2941,-5.8046 -3.933,-12.1355 -7.5551,-18.125 -8.7827,-14.52306 -9.8773,-19.70384 -8.1281,-38.47199 1.4773,-15.85092 6.4988,-42.89215 9.6161,-51.78332 0.9258,-2.64043 4.5686,-9.57765 8.0951,-15.41605 3.5266,-5.83841 5.9242,-11.03604 5.328,-11.55029 -0.5961,-0.51425 -5.355,-4.36915 -10.5752,-8.56642 -10.3008,-8.28225 -12.4288,-10.89727 -14.8312,-18.22537 l -1.5765,-4.80888 -5.8005,0.82442 c -64.93891,9.22974 -125.85997,38.86216 -172.66003,83.98301 -8.09229,7.80194 -15.36141,14.18534 -16.1536,14.18534 -3.11549,0 -2.68707,-3.92033 0.92712,-8.48361 5.07789,-6.41135 27.72163,-26.4061 41.65746,-36.78415 39.85335,-29.67888 93.3515,-51.95941 140.65805,-58.58028 l 11.4795,-1.60662 1.8898,-5.08518 c 1.0395,-2.79683 2.2555,-7.33516 2.7023,-10.08516 1.3564,-8.34833 8.6889,-17.84236 16.7484,-21.68559 6.6295,-3.16133 7.2391,-3.86786 13.2005,-15.29783 3.4375,-6.59088 8.9371,-15.30963 12.2215,-19.375 6.5837,-8.14949 15.8966,-25.54187 15.9157,-29.72383 0.022,-4.78416 5.7012,-15.01586 12.4002,-22.33969 4.163,-4.55135 11.8102,-10.44927 20.9285,-16.14126 22.6661,-14.14902 23.1268,-17.2171 4.2695,-28.43699 -21.4048,-12.73562 -27.4987,-21.20417 -25.6878,-35.69781 0.7498,-6.00152 0.5552,-6.8013 -2.1108,-8.6737 -2.2296,-1.56588 -2.9773,-3.3348 -3.105,-7.34544 -0.092,-2.90557 -2.1658,-10.9066 -4.6074,-17.78005 -3.032,-8.53547 -4.6214,-15.47004 -5.0136,-21.875 -0.3158,-5.1578 -1.1956,-10.9613 -1.955,-12.89668 -0.7595,-1.93538 -1.3808,-4.06717 -1.3808,-4.7373 0,-0.67013 -1.125,-3.42361 -2.5,-6.11883 -3.2921,-6.45293 -3.1386,-10.44849 0.7199,-18.75 5.5555,-11.95235 8.7259,-14.2236 22.5965,-16.18792 5.8931,-0.83456 8.6119,-1.87286 10.2717,-3.92263 1.7272,-2.13294 4.2486,-3.02738 10.7358,-3.80836 5.4424,-0.65521 10.4916,-2.20051 14.1006,-4.31551 l 5.6221,-3.2948 25.1642,0.90655 c 13.8403,0.4986 26.2892,1.47571 27.6642,2.17133 4.5337,2.29364 15.62502,15.43063 15.62502,18.50685 0,0.65697 0.7566,1.19449 1.6812,1.19449 2.7002,0 5.4328,3.9892 6.3927,9.33246 0.4899,2.7266 1.9674,5.71162 3.2834,6.63338 1.316,0.92176 2.3927,2.49813 2.3927,3.50305 0,1.00492 1.4503,4.60075 3.2228,7.99074 2.7476,5.25455 3.1034,7.14084 2.4128,12.78949 -0.5799,4.74263 -0.2524,7.94678 1.1521,11.27323 2.6187,6.20187 2.4971,7.46643 -1.1229,11.67929 -4.2428,4.9376 -4.9206,9.23364 -2.4365,15.44205 1.5243,3.80964 1.8837,7.08167 1.3121,11.94523 -1.078,9.17221 -1.461,9.87508 -7.1114,13.05076 -5.8322,3.27791 -8.679,8.13186 -8.679,14.79824 0,7.34164 1.2316,7.90774 15.2113,6.99161 11.9637,-0.78403 12.4062,-0.71486 20.3066,3.17448 6.0458,2.97633 10.2173,6.36379 16.5917,13.47308 8.649,9.64611 10.9718,11.94671 24.4063,24.17291 4.155,3.78125 9.0293,9.06003 10.8318,11.7306 1.8025,2.67059 4.2271,6.28123 5.3879,8.02364 4.7651,7.15246 3.9223,27.07489 -1.6059,37.96069 -3.7699,7.42342 -15.6913,19.33422 -25.4211,25.39853 -4.9739,3.1001 -9.4168,5.63654 -9.8731,5.63654 -0.4564,0 -3.5029,1.90143 -6.7701,4.22539 -3.2672,2.32396 -8.2845,5.40542 -11.1496,6.84769 -8.0751,4.06502 -21.427,16.04893 -24.3325,21.83943 -1.4385,2.86686 -3.6433,6.3379 -4.8996,7.71342 -1.2562,1.37549 -4.0052,7.37736 -6.1089,13.33745 -3.084,8.73758 -3.8248,12.83787 -3.8248,21.16921 0,18.93085 -5.79292,35.00259 -15.47622,42.93737 -3.3044,2.70769 -6.3915,6.67255 -7.6313,9.8011 -1.1451,2.88967 -3.7622,7.88944 -5.8157,11.11062 -2.0535,3.22117 -4.3078,8.00242 -5.0095,10.625 -0.7017,2.62257 -2.8251,6.73707 -4.7187,9.14332 -8.1693,10.38114 -8.0505,13.43849 1.0672,27.46425 9.6157,14.79195 10.5576,18.5996 10.3676,41.9108 -0.09,11 -0.7479,25.0625 -1.4629,31.25 -0.715,6.1875 -1.3046,18.70514 -1.3103,27.81704 -0.01,14.1914 0.3483,17.2359 2.4898,21.2315 3.2012,5.9727 3.2012,13.734 0,17.82646 -1.3444,1.7187 -2.4569,3.5468 -2.4722,4.0625 -0.015,0.5155 8.9722,0.9374 19.9722,0.9374 l 20.00002,0 0,25.48578 0,25.48578 -4.0625,0.7241 c -8.0744,1.439 -113.23942,14.55024 -115.49722,14.39934 -1.2734,-0.085 -9.0653,-1.1503 -17.3153,-2.367 z m -376.25002,-2.5791 c -12.00051,-1.62677 -23.39392,-4.64607 -25.51762,-6.76227 -4.20103,-4.18617 5.22468,-8.15464 25.51762,-10.74354 16.68318,-2.1284 61.12255,-1.8141 76.39075,0.5403 27.33028,4.21437 30.48682,10.22544 7.98425,15.20464 -11.13559,2.46397 -70.10923,3.69477 -84.375,1.76087 z m 35.25154,-28.18915 c -1.07385,-1.0738 -1.1689,-16.99344 -0.11781,-19.73251 0.90176,-2.3499 4.98031,-2.6419 5.7963,-0.4147 0.31487,0.85927 0.23443,5.77537 -0.17877,10.92444 -0.56609,7.05437 -1.22845,9.45287 -2.68722,9.73067 -1.06477,0.2028 -2.3304,-0.026 -2.8125,-0.5079 z m 2.08994,-33.54715 c -1.09419,-2.8513 2.03386,-19.14516 3.80601,-19.82516 0.86857,-0.3333 2.32223,-0.1468 3.23036,0.4144 1.3471,0.8326 1.37584,2.6875 0.15608,10.0734 -0.82228,4.97906 -1.79013,9.53026 -2.15076,10.11373 -1.05869,1.713 -4.27658,1.2174 -5.04169,-0.77637 z m 6.19566,-31.39146 c -0.98409,-2.5645 2.96792,-18.2699 4.8974,-19.4623 2.02348,-1.2506 4.69611,0.1945 4.64654,2.5125 -0.0242,1.1296 -1.06535,5.71 -2.31378,10.1788 -2.30554,8.2527 -5.51001,11.2536 -7.23016,6.771 z m 8.90194,-30.85414 c -0.80727,-2.1037 3.99349,-15.7596 6.4588,-18.3723 1.51569,-1.6063 1.95943,-1.5981 3.62475,0.067 1.69685,1.6969 1.52116,2.8164 -1.66048,10.5804 -3.45562,8.4326 -6.92906,11.618 -8.42307,7.7247 z m 13.49842,-28.0648 c -2.47491,-0.8878 -1.79541,-4.1631 2.53515,-12.2198 3.98992,-7.4231 7.43821,-9.9478 8.78679,-6.4335 0.64608,1.6837 -6.9177,17.6183 -8.88809,18.7246 -0.47924,0.269 -1.57448,0.237 -2.43385,-0.071 z m 14.27084,-28.6855 c -1.60226,-1.6022 -0.79606,-3.8367 4.1394,-11.47285 2.73501,-4.23159 5.84641,-7.6938 6.91423,-7.6938 3.92768,0 3.30493,3.90616 -1.89521,11.88765 -4.93471,7.5741 -7.12362,9.3138 -9.15842,7.279 z m 17.91666,-27.29165 c -1.7165,-2.06825 -1.95634,-1.62716 6.59254,-12.124 4.73428,-5.81305 8.4183,-6.8789 8.39817,-2.42976 -0.01,2.20329 -10.78069,16.42876 -12.43892,16.42876 -0.54763,0 -1.69593,-0.84375 -2.55179,-1.875 z"
           id="path4412-9"
           inkscape:connector-curvature="0" />
      </g>
    </g>
  </g>
</svg>
